<?xml version="1.0" encoding="UTF-8" standalone="no"?>
<svg width="386.997mm" height="91.7222mm"
 xmlns="http://www.w3.org/2000/svg" xmlns:xlink="http://www.w3.org/1999/xlink"  version="1.2" baseProfile="tiny">
<title>Qt SVG Document</title>
<desc>Generated with Qt</desc>
<defs>
</defs>
<g fill="none" stroke="black" stroke-width="1" fill-rule="evenodd" stroke-linecap="square" stroke-linejoin="bevel" >

<g fill="none" stroke="#000000" stroke-opacity="1" stroke-width="1" stroke-linecap="square" stroke-linejoin="bevel" transform="matrix(1,0,0,1,0,0)"
font-family="Ubuntu" font-size="11" font-weight="400" font-style="normal" 
>
</g>

<g fill="none" stroke="#000000" stroke-opacity="1" stroke-width="1" stroke-linecap="square" stroke-linejoin="bevel" transform="matrix(1,0,0,1,0,0)"
font-family="Ubuntu" font-size="11" font-weight="400" font-style="normal" 
>
</g>

<g fill="none" stroke="#000000" stroke-opacity="1" stroke-width="1" stroke-linecap="square" stroke-linejoin="bevel" transform="matrix(1.99938,0,0,1.99938,0.00079975,274.914)"
font-family="Ubuntu" font-size="11" font-weight="400" font-style="normal" 
>
</g>

<g fill="#ffffff" fill-opacity="1" stroke="none" transform="matrix(1.99938,0,0,1.99938,0.00079975,274.914)"
font-family="Ubuntu" font-size="11" font-weight="400" font-style="normal" 
>
<rect x="-0.0004" y="-137.5" width="548.671" height="130"/>
</g>

<g fill="none" stroke="#000000" stroke-opacity="1" stroke-width="1" stroke-linecap="square" stroke-linejoin="bevel" transform="matrix(1.99938,0,0,1.99938,0.00079975,274.914)"
font-family="Ubuntu" font-size="11" font-weight="400" font-style="normal" 
>
</g>

<g fill="none" stroke="#000000" stroke-opacity="1" stroke-width="1" stroke-linecap="square" stroke-linejoin="bevel" transform="matrix(1.99938,0,0,1.99938,0.00079975,274.914)"
font-family="Ubuntu" font-size="11" font-weight="400" font-style="normal" 
>
</g>

<g fill="none" stroke="#000000" stroke-opacity="1" stroke-width="1" stroke-linecap="square" stroke-linejoin="bevel" transform="matrix(1.99938,0,0,1.99938,0.00079975,274.914)"
font-family="Ubuntu" font-size="11" font-weight="400" font-style="normal" 
>
</g>

<g fill="none" stroke="#000000" stroke-opacity="1" stroke-width="1" stroke-linecap="square" stroke-linejoin="bevel" transform="matrix(1.99938,0,0,1.99938,0.00079975,274.914)"
font-family="Ubuntu" font-size="11" font-weight="400" font-style="normal" 
>
</g>

<g fill="none" stroke="#000000" stroke-opacity="1" stroke-width="1" stroke-linecap="square" stroke-linejoin="round" transform="matrix(1.99938,0,0,1.99938,0.00079975,274.914)"
font-family="Ubuntu" font-size="11" font-weight="400" font-style="normal" 
>
<rect x="149.69" y="-137" width="144" height="129"/>
</g>

<g fill="none" stroke="#000000" stroke-opacity="1" stroke-width="1" stroke-linecap="square" stroke-linejoin="bevel" transform="matrix(1.99938,0,0,1.99938,0.00079975,274.914)"
font-family="Ubuntu" font-size="11" font-weight="400" font-style="normal" 
>
</g>

<g fill="none" stroke="#000000" stroke-opacity="1" stroke-width="1" stroke-linecap="square" stroke-linejoin="bevel" transform="matrix(1.99938,0,0,1.99938,402.646,10.9966)"
font-family="Ubuntu" font-size="11" font-weight="400" font-style="normal" 
>
</g>

<g fill="none" stroke="#000000" stroke-opacity="1" stroke-width="1" stroke-linecap="square" stroke-linejoin="bevel" transform="matrix(1.99938,0,0,1.99938,402.646,10.9966)"
font-family="sans" font-size="11" font-weight="100" font-style="normal" 
>
</g>

<g fill="#000000" fill-opacity="1" stroke="#000000" stroke-opacity="1" stroke-width="1" stroke-linecap="square" stroke-linejoin="round" transform="matrix(1.99938,0,0,1.99938,402.646,10.9966)"
font-family="sans" font-size="11" font-weight="100" font-style="normal" 
>
<path vector-effect="none" fill-rule="nonzero" d="M2.96875,1.98438 L3.53125,1.98438 L0.734375,11.0156 L0.171875,11.0156 L2.96875,1.98438 M5.46875,2.28125 L5.46875,3.98438 L7.5,3.98438 L7.5,4.40625 L5.46875,4.40625 L5.46875,8.01562 C5.46875,8.47396 5.52604,8.79688 5.64062,8.98438 C5.89062,9.38021 6.25,9.57812 6.71875,9.57812 L7.5,9.57812 L7.5,10 L6.73438,10 C6.24479,10 5.82812,9.85677 5.48438,9.57031 C5.14062,9.28385 4.96875,8.76562 4.96875,8.01562 L4.96875,4.40625 L4.25,4.40625 L4.25,3.98438 L4.96875,3.98438 L4.96875,2.28125 L5.46875,2.28125 M9.20312,7.60938 L9.20312,3.98438 L9.6875,3.98438 L9.6875,7.57812 C9.6875,8.35938 9.8125,8.90885 10.0625,9.22656 C10.3125,9.54427 10.6823,9.70312 11.1719,9.70312 C11.7448,9.70312 12.2344,9.53125 12.6406,9.1875 C13.0469,8.84375 13.25,8.24479 13.25,7.39062 L13.25,3.98438 L13.7344,3.98438 L13.7344,10 L13.25,10 L13.25,8.875 C13.0729,9.23958 12.8385,9.51562 12.5469,9.70312 C12.1302,9.99479 11.6667,10.1406 11.1562,10.1406 C10.5625,10.1406 10.0885,9.9375 9.73438,9.53125 C9.38021,9.13542 9.20312,8.49479 9.20312,7.60938 M19.5,4.40625 C19.4167,4.36458 19.3073,4.33333 19.1719,4.3125 C19.0469,4.29167 18.8958,4.28125 18.7188,4.28125 C18.1042,4.28125 17.599,4.50521 17.2031,4.95312 C16.8802,5.31771 16.7188,5.94271 16.7188,6.82812 L16.7188,10 L16.2344,10 L16.2344,3.98438 L16.7188,3.98438 L16.7188,5.10938 C16.8854,4.78646 17.1146,4.51562 17.4062,4.29688 C17.8021,3.99479 18.2708,3.84375 18.8125,3.84375 C18.9583,3.84375 19.0833,3.84896 19.1875,3.85938 C19.2917,3.85938 19.3958,3.86979 19.5,3.89062 L19.5,4.40625 M21.2656,2.28125 L21.2656,3.98438 L23.2969,3.98438 L23.2969,4.40625 L21.2656,4.40625 L21.2656,8.01562 C21.2656,8.47396 21.3229,8.79688 21.4375,8.98438 C21.6875,9.38021 22.0469,9.57812 22.5156,9.57812 L23.2969,9.57812 L23.2969,10 L22.5312,10 C22.0417,10 21.625,9.85677 21.2812,9.57031 C20.9375,9.28385 20.7656,8.76562 20.7656,8.01562 L20.7656,4.40625 L20.0469,4.40625 L20.0469,3.98438 L20.7656,3.98438 L20.7656,2.28125 L21.2656,2.28125 M25.0625,1.64062 L25.5469,1.64062 L25.5469,10 L25.0625,10 L25.0625,1.64062 M32.7969,6.75 L32.7969,7.0625 L28.2344,7.0625 C28.2344,8.02083 28.4219,8.69792 28.7969,9.09375 C29.2135,9.52083 29.8281,9.73438 30.6406,9.73438 C30.8594,9.73438 31.1458,9.6875 31.5,9.59375 C31.8542,9.5 32.2083,9.35938 32.5625,9.17188 L32.5625,9.6875 C32.2083,9.84375 31.8464,9.96094 31.4766,10.0391 C31.1068,10.1172 30.8125,10.1562 30.5938,10.1562 C29.6667,10.1562 28.9688,9.90625 28.5,9.40625 C27.9896,8.875 27.7344,8.09375 27.7344,7.0625 C27.7344,5.98958 27.9635,5.1875 28.4219,4.65625 C28.901,4.11458 29.5677,3.84375 30.4219,3.84375 C31.2031,3.84375 31.7969,4.10417 32.2031,4.625 C32.599,5.16667 32.7969,5.875 32.7969,6.75 M32.2969,6.64062 C32.2969,5.79688 32.1042,5.18229 31.7188,4.79688 C31.4062,4.45312 30.974,4.28125 30.4219,4.28125 C29.8281,4.28125 29.3281,4.45833 28.9219,4.8125 C28.5469,5.14583 28.3229,5.75521 28.25,6.64062 L32.2969,6.64062 M35.2656,9.5625 L37.0312,9.5625 L37.0312,2.46875 L34.8281,3.35938 L34.8281,2.85938 L37.0156,1.98438 L37.5625,1.98438 L37.5625,9.5625 L39.3438,9.5625 L39.3438,10 L35.2656,10 L35.2656,9.5625"/>
</g>

<g fill="none" stroke="#000000" stroke-opacity="1" stroke-width="1" stroke-linecap="square" stroke-linejoin="bevel" transform="matrix(1.99938,0,0,1.99938,402.646,10.9966)"
font-family="sans" font-size="11" font-weight="100" font-style="normal" 
>
</g>

<g fill="none" stroke="#000000" stroke-opacity="1" stroke-width="1" stroke-linecap="square" stroke-linejoin="bevel" transform="matrix(1.99938,0,0,1.99938,402.646,10.9966)"
font-family="Ubuntu" font-size="11" font-weight="400" font-style="normal" 
>
</g>

<g fill="none" stroke="#000000" stroke-opacity="1" stroke-width="1" stroke-linecap="square" stroke-linejoin="bevel" transform="matrix(1.99938,0,0,1.99938,0.00079975,274.914)"
font-family="Ubuntu" font-size="11" font-weight="400" font-style="normal" 
>
</g>

<g fill="none" stroke="#000000" stroke-opacity="1" stroke-width="1" stroke-linecap="square" stroke-linejoin="bevel" transform="matrix(1.99938,0,0,1.99938,0.00079975,274.914)"
font-family="Ubuntu" font-size="11" font-weight="400" font-style="normal" 
>
</g>

<g fill="none" stroke="#000000" stroke-opacity="1" stroke-width="1" stroke-linecap="square" stroke-linejoin="bevel" transform="matrix(1.99938,0,0,1.99938,0.00079975,274.914)"
font-family="Ubuntu" font-size="11" font-weight="400" font-style="normal" 
>
</g>

<g fill="none" stroke="#000000" stroke-opacity="1" stroke-width="1" stroke-linecap="square" stroke-linejoin="round" transform="matrix(1.99938,0,0,1.99938,0.00079975,274.914)"
font-family="Ubuntu" font-size="11" font-weight="400" font-style="normal" 
>
<rect x="180.189" y="-51.5" width="83.0024" height="35"/>
</g>

<g fill="none" stroke="#000000" stroke-opacity="1" stroke-width="1" stroke-linecap="square" stroke-linejoin="bevel" transform="matrix(1.99938,0,0,1.99938,0.00079975,274.914)"
font-family="Ubuntu" font-size="11" font-weight="400" font-style="normal" 
>
</g>

<g fill="none" stroke="#000000" stroke-opacity="1" stroke-width="1" stroke-linecap="square" stroke-linejoin="bevel" transform="matrix(1.99938,0,0,1.99938,372.78,193.939)"
font-family="Ubuntu" font-size="11" font-weight="400" font-style="normal" 
>
</g>

<g fill="none" stroke="#000000" stroke-opacity="1" stroke-width="1" stroke-linecap="square" stroke-linejoin="bevel" transform="matrix(1.99938,0,0,1.99938,372.78,193.939)"
font-family="sans" font-size="11" font-weight="100" font-style="normal" 
>
</g>

<g fill="#000000" fill-opacity="1" stroke="#000000" stroke-opacity="1" stroke-width="1" stroke-linecap="square" stroke-linejoin="round" transform="matrix(1.99938,0,0,1.99938,372.78,193.939)"
font-family="sans" font-size="11" font-weight="100" font-style="normal" 
>
<path vector-effect="none" fill-rule="nonzero" d="M2.96875,1.98438 L3.53125,1.98438 L0.734375,11.0156 L0.171875,11.0156 L2.96875,1.98438 M5.46875,2.28125 L5.46875,3.98438 L7.5,3.98438 L7.5,4.40625 L5.46875,4.40625 L5.46875,8.01562 C5.46875,8.47396 5.52604,8.79688 5.64062,8.98438 C5.89062,9.38021 6.25,9.57812 6.71875,9.57812 L7.5,9.57812 L7.5,10 L6.73438,10 C6.24479,10 5.82812,9.85677 5.48438,9.57031 C5.14062,9.28385 4.96875,8.76562 4.96875,8.01562 L4.96875,4.40625 L4.25,4.40625 L4.25,3.98438 L4.96875,3.98438 L4.96875,2.28125 L5.46875,2.28125 M9.20312,7.60938 L9.20312,3.98438 L9.6875,3.98438 L9.6875,7.57812 C9.6875,8.35938 9.8125,8.90885 10.0625,9.22656 C10.3125,9.54427 10.6823,9.70312 11.1719,9.70312 C11.7448,9.70312 12.2344,9.53125 12.6406,9.1875 C13.0469,8.84375 13.25,8.24479 13.25,7.39062 L13.25,3.98438 L13.7344,3.98438 L13.7344,10 L13.25,10 L13.25,8.875 C13.0729,9.23958 12.8385,9.51562 12.5469,9.70312 C12.1302,9.99479 11.6667,10.1406 11.1562,10.1406 C10.5625,10.1406 10.0885,9.9375 9.73438,9.53125 C9.38021,9.13542 9.20312,8.49479 9.20312,7.60938 M19.5,4.40625 C19.4167,4.36458 19.3073,4.33333 19.1719,4.3125 C19.0469,4.29167 18.8958,4.28125 18.7188,4.28125 C18.1042,4.28125 17.599,4.50521 17.2031,4.95312 C16.8802,5.31771 16.7188,5.94271 16.7188,6.82812 L16.7188,10 L16.2344,10 L16.2344,3.98438 L16.7188,3.98438 L16.7188,5.10938 C16.8854,4.78646 17.1146,4.51562 17.4062,4.29688 C17.8021,3.99479 18.2708,3.84375 18.8125,3.84375 C18.9583,3.84375 19.0833,3.84896 19.1875,3.85938 C19.2917,3.85938 19.3958,3.86979 19.5,3.89062 L19.5,4.40625 M21.2656,2.28125 L21.2656,3.98438 L23.2969,3.98438 L23.2969,4.40625 L21.2656,4.40625 L21.2656,8.01562 C21.2656,8.47396 21.3229,8.79688 21.4375,8.98438 C21.6875,9.38021 22.0469,9.57812 22.5156,9.57812 L23.2969,9.57812 L23.2969,10 L22.5312,10 C22.0417,10 21.625,9.85677 21.2812,9.57031 C20.9375,9.28385 20.7656,8.76562 20.7656,8.01562 L20.7656,4.40625 L20.0469,4.40625 L20.0469,3.98438 L20.7656,3.98438 L20.7656,2.28125 L21.2656,2.28125 M25.0625,1.64062 L25.5469,1.64062 L25.5469,10 L25.0625,10 L25.0625,1.64062 M32.7969,6.75 L32.7969,7.0625 L28.2344,7.0625 C28.2344,8.02083 28.4219,8.69792 28.7969,9.09375 C29.2135,9.52083 29.8281,9.73438 30.6406,9.73438 C30.8594,9.73438 31.1458,9.6875 31.5,9.59375 C31.8542,9.5 32.2083,9.35938 32.5625,9.17188 L32.5625,9.6875 C32.2083,9.84375 31.8464,9.96094 31.4766,10.0391 C31.1068,10.1172 30.8125,10.1562 30.5938,10.1562 C29.6667,10.1562 28.9688,9.90625 28.5,9.40625 C27.9896,8.875 27.7344,8.09375 27.7344,7.0625 C27.7344,5.98958 27.9635,5.1875 28.4219,4.65625 C28.901,4.11458 29.5677,3.84375 30.4219,3.84375 C31.2031,3.84375 31.7969,4.10417 32.2031,4.625 C32.599,5.16667 32.7969,5.875 32.7969,6.75 M32.2969,6.64062 C32.2969,5.79688 32.1042,5.18229 31.7188,4.79688 C31.4062,4.45312 30.974,4.28125 30.4219,4.28125 C29.8281,4.28125 29.3281,4.45833 28.9219,4.8125 C28.5469,5.14583 28.3229,5.75521 28.25,6.64062 L32.2969,6.64062 M35.2656,9.5625 L37.0312,9.5625 L37.0312,2.46875 L34.8281,3.35938 L34.8281,2.85938 L37.0156,1.98438 L37.5625,1.98438 L37.5625,9.5625 L39.3438,9.5625 L39.3438,10 L35.2656,10 L35.2656,9.5625 M43.5781,1.98438 L44.1406,1.98438 L41.3438,11.0156 L40.7812,11.0156 L43.5781,1.98438 M46.0469,8.64062 L46.0469,12.2812 L45.5625,12.2812 L45.5625,3.98438 L46.0469,3.98438 L46.0469,5.35938 C46.276,4.83854 46.5208,4.47917 46.7812,4.28125 C47.1875,3.98958 47.5729,3.84375 47.9375,3.84375 C48.6458,3.84375 49.237,4.13281 49.7109,4.71094 C50.1849,5.28906 50.4219,6.05208 50.4219,7 C50.4219,7.94792 50.1849,8.71094 49.7109,9.28906 C49.237,9.86719 48.6458,10.1562 47.9375,10.1562 C47.5729,10.1562 47.1875,10.0052 46.7812,9.70312 C46.5208,9.51562 46.276,9.16146 46.0469,8.64062 M49.2812,9.09375 C49.6979,8.67708 49.9062,7.97917 49.9062,7 C49.9062,6.02083 49.6979,5.32292 49.2812,4.90625 C48.8646,4.48958 48.4271,4.28125 47.9688,4.28125 C47.5208,4.28125 47.0885,4.48958 46.6719,4.90625 C46.2656,5.32292 46.0625,6.02083 46.0625,7 C46.0625,7.97917 46.2656,8.67708 46.6719,9.09375 C47.0885,9.51042 47.5208,9.71875 47.9688,9.71875 C48.4271,9.71875 48.8646,9.51042 49.2812,9.09375 M56.1094,5.01562 C55.7552,4.52604 55.2708,4.28125 54.6562,4.28125 C54.0417,4.28125 53.5573,4.52604 53.2031,5.01562 C52.849,5.49479 52.6719,6.15104 52.6719,6.98438 C52.6719,7.83854 52.849,8.51042 53.2031,9 C53.5573,9.48958 54.0417,9.73438 54.6562,9.73438 C55.2708,9.73438 55.7552,9.48958 56.1094,9 C56.4635,8.5 56.6406,7.82812 56.6406,6.98438 C56.6406,6.16146 56.4635,5.50521 56.1094,5.01562 M54.6562,3.84375 C55.4167,3.84375 56.0208,4.13021 56.4688,4.70312 C56.9167,5.27604 57.1406,6.03646 57.1406,6.98438 C57.1406,7.97396 56.9167,8.75521 56.4688,9.32812 C56.0208,9.90104 55.4167,10.1875 54.6562,10.1875 C53.875,10.1875 53.2604,9.90104 52.8125,9.32812 C52.375,8.75521 52.1562,7.97396 52.1562,6.98438 C52.1562,6.02604 52.3802,5.26302 52.8281,4.69531 C53.276,4.1276 53.8854,3.84375 54.6562,3.84375 M62.6562,4.15625 L62.6562,4.70312 C62.3021,4.50521 62.0833,4.39583 62,4.375 C61.75,4.32292 61.4375,4.29167 61.0625,4.28125 C60.5,4.28125 60.0573,4.39062 59.7344,4.60938 C59.4844,4.79688 59.3594,5.11458 59.3594,5.5625 C59.3594,5.875 59.4792,6.11458 59.7188,6.28125 C59.9583,6.46875 60.3073,6.61458 60.7656,6.71875 L61.1094,6.78125 C61.6823,6.90625 62.1146,7.08333 62.4062,7.3125 C62.75,7.58333 62.9271,7.92708 62.9375,8.34375 C62.9375,8.90625 62.7708,9.34896 62.4375,9.67188 C62.0833,9.99479 61.5052,10.1562 60.7031,10.1562 C60.2656,10.1562 59.9323,10.125 59.7031,10.0625 C59.4219,9.98958 59.1302,9.89583 58.8281,9.78125 L58.8281,9.15625 C59.2656,9.40625 59.5469,9.55208 59.6719,9.59375 C60.026,9.6875 60.3802,9.73438 60.7344,9.73438 C61.3073,9.73438 61.7344,9.61458 62.0156,9.375 C62.2969,9.125 62.4375,8.80729 62.4375,8.42188 C62.4375,8.08854 62.3438,7.84896 62.1562,7.70312 C61.8854,7.48438 61.4583,7.30729 60.875,7.17188 L60.5312,7.09375 C60.0208,6.96875 59.6354,6.80208 59.375,6.59375 C59.0417,6.32292 58.875,5.99479 58.875,5.60938 C58.875,4.98438 59.0755,4.53385 59.4766,4.25781 C59.8776,3.98177 60.3698,3.84375 60.9531,3.84375 C61.4531,3.84375 61.7969,3.86979 61.9844,3.92188 C62.2135,3.98438 62.4375,4.0625 62.6562,4.15625 M69.6562,6.75 L69.6562,7.0625 L65.0938,7.0625 C65.0938,8.02083 65.2812,8.69792 65.6562,9.09375 C66.0729,9.52083 66.6875,9.73438 67.5,9.73438 C67.7188,9.73438 68.0052,9.6875 68.3594,9.59375 C68.7135,9.5 69.0677,9.35938 69.4219,9.17188 L69.4219,9.6875 C69.0677,9.84375 68.7057,9.96094 68.3359,10.0391 C67.9661,10.1172 67.6719,10.1562 67.4531,10.1562 C66.526,10.1562 65.8281,9.90625 65.3594,9.40625 C64.849,8.875 64.5938,8.09375 64.5938,7.0625 C64.5938,5.98958 64.8229,5.1875 65.2812,4.65625 C65.7604,4.11458 66.4271,3.84375 67.2812,3.84375 C68.0625,3.84375 68.6562,4.10417 69.0625,4.625 C69.4583,5.16667 69.6562,5.875 69.6562,6.75 M69.1562,6.64062 C69.1562,5.79688 68.9635,5.18229 68.5781,4.79688 C68.2656,4.45312 67.8333,4.28125 67.2812,4.28125 C66.6875,4.28125 66.1875,4.45833 65.7812,4.8125 C65.4062,5.14583 65.1823,5.75521 65.1094,6.64062 L69.1562,6.64062"/>
</g>

<g fill="none" stroke="#000000" stroke-opacity="1" stroke-width="1" stroke-linecap="square" stroke-linejoin="bevel" transform="matrix(1.99938,0,0,1.99938,372.78,193.939)"
font-family="sans" font-size="11" font-weight="100" font-style="normal" 
>
</g>

<g fill="none" stroke="#000000" stroke-opacity="1" stroke-width="1" stroke-linecap="square" stroke-linejoin="bevel" transform="matrix(1.99938,0,0,1.99938,372.78,193.939)"
font-family="Ubuntu" font-size="11" font-weight="400" font-style="normal" 
>
</g>

<g fill="none" stroke="#000000" stroke-opacity="1" stroke-width="1" stroke-linecap="square" stroke-linejoin="bevel" transform="matrix(1.99938,0,0,1.99938,0.00079975,274.914)"
font-family="Ubuntu" font-size="11" font-weight="400" font-style="normal" 
>
</g>

<g fill="none" stroke="#000000" stroke-opacity="1" stroke-width="1" stroke-linecap="square" stroke-linejoin="bevel" transform="matrix(1.99938,0,0,1.99938,0.00079975,274.914)"
font-family="Ubuntu" font-size="11" font-weight="400" font-style="normal" 
>
</g>

<g fill="none" stroke="#000000" stroke-opacity="1" stroke-width="1" stroke-linecap="square" stroke-linejoin="bevel" transform="matrix(1.99938,0,0,1.99938,0.00079975,274.914)"
font-family="Ubuntu" font-size="11" font-weight="400" font-style="normal" 
>
</g>

<g fill="none" stroke="#000000" stroke-opacity="1" stroke-width="1" stroke-linecap="square" stroke-linejoin="round" transform="matrix(1.99938,0,0,1.99938,0.00079975,274.914)"
font-family="Ubuntu" font-size="11" font-weight="400" font-style="normal" 
>
<rect x="158.189" y="-105.5" width="127.002" height="35"/>
</g>

<g fill="none" stroke="#000000" stroke-opacity="1" stroke-width="1" stroke-linecap="square" stroke-linejoin="bevel" transform="matrix(1.99938,0,0,1.99938,0.00079975,274.914)"
font-family="Ubuntu" font-size="11" font-weight="400" font-style="normal" 
>
</g>

<g fill="none" stroke="#000000" stroke-opacity="1" stroke-width="1" stroke-linecap="square" stroke-linejoin="bevel" transform="matrix(1.99938,0,0,1.99938,330.012,85.9732)"
font-family="Ubuntu" font-size="11" font-weight="400" font-style="normal" 
>
</g>

<g fill="none" stroke="#000000" stroke-opacity="1" stroke-width="1" stroke-linecap="square" stroke-linejoin="bevel" transform="matrix(1.99938,0,0,1.99938,330.012,85.9732)"
font-family="sans" font-size="11" font-weight="100" font-style="normal" 
>
</g>

<g fill="#000000" fill-opacity="1" stroke="#000000" stroke-opacity="1" stroke-width="1" stroke-linecap="square" stroke-linejoin="round" transform="matrix(1.99938,0,0,1.99938,330.012,85.9732)"
font-family="sans" font-size="11" font-weight="100" font-style="normal" 
>
<path vector-effect="none" fill-rule="nonzero" d="M2.96875,1.98438 L3.53125,1.98438 L0.734375,11.0156 L0.171875,11.0156 L2.96875,1.98438 M5.46875,2.28125 L5.46875,3.98438 L7.5,3.98438 L7.5,4.40625 L5.46875,4.40625 L5.46875,8.01562 C5.46875,8.47396 5.52604,8.79688 5.64062,8.98438 C5.89062,9.38021 6.25,9.57812 6.71875,9.57812 L7.5,9.57812 L7.5,10 L6.73438,10 C6.24479,10 5.82812,9.85677 5.48438,9.57031 C5.14062,9.28385 4.96875,8.76562 4.96875,8.01562 L4.96875,4.40625 L4.25,4.40625 L4.25,3.98438 L4.96875,3.98438 L4.96875,2.28125 L5.46875,2.28125 M9.20312,7.60938 L9.20312,3.98438 L9.6875,3.98438 L9.6875,7.57812 C9.6875,8.35938 9.8125,8.90885 10.0625,9.22656 C10.3125,9.54427 10.6823,9.70312 11.1719,9.70312 C11.7448,9.70312 12.2344,9.53125 12.6406,9.1875 C13.0469,8.84375 13.25,8.24479 13.25,7.39062 L13.25,3.98438 L13.7344,3.98438 L13.7344,10 L13.25,10 L13.25,8.875 C13.0729,9.23958 12.8385,9.51562 12.5469,9.70312 C12.1302,9.99479 11.6667,10.1406 11.1562,10.1406 C10.5625,10.1406 10.0885,9.9375 9.73438,9.53125 C9.38021,9.13542 9.20312,8.49479 9.20312,7.60938 M19.5,4.40625 C19.4167,4.36458 19.3073,4.33333 19.1719,4.3125 C19.0469,4.29167 18.8958,4.28125 18.7188,4.28125 C18.1042,4.28125 17.599,4.50521 17.2031,4.95312 C16.8802,5.31771 16.7188,5.94271 16.7188,6.82812 L16.7188,10 L16.2344,10 L16.2344,3.98438 L16.7188,3.98438 L16.7188,5.10938 C16.8854,4.78646 17.1146,4.51562 17.4062,4.29688 C17.8021,3.99479 18.2708,3.84375 18.8125,3.84375 C18.9583,3.84375 19.0833,3.84896 19.1875,3.85938 C19.2917,3.85938 19.3958,3.86979 19.5,3.89062 L19.5,4.40625 M21.2656,2.28125 L21.2656,3.98438 L23.2969,3.98438 L23.2969,4.40625 L21.2656,4.40625 L21.2656,8.01562 C21.2656,8.47396 21.3229,8.79688 21.4375,8.98438 C21.6875,9.38021 22.0469,9.57812 22.5156,9.57812 L23.2969,9.57812 L23.2969,10 L22.5312,10 C22.0417,10 21.625,9.85677 21.2812,9.57031 C20.9375,9.28385 20.7656,8.76562 20.7656,8.01562 L20.7656,4.40625 L20.0469,4.40625 L20.0469,3.98438 L20.7656,3.98438 L20.7656,2.28125 L21.2656,2.28125 M25.0625,1.64062 L25.5469,1.64062 L25.5469,10 L25.0625,10 L25.0625,1.64062 M32.7969,6.75 L32.7969,7.0625 L28.2344,7.0625 C28.2344,8.02083 28.4219,8.69792 28.7969,9.09375 C29.2135,9.52083 29.8281,9.73438 30.6406,9.73438 C30.8594,9.73438 31.1458,9.6875 31.5,9.59375 C31.8542,9.5 32.2083,9.35938 32.5625,9.17188 L32.5625,9.6875 C32.2083,9.84375 31.8464,9.96094 31.4766,10.0391 C31.1068,10.1172 30.8125,10.1562 30.5938,10.1562 C29.6667,10.1562 28.9688,9.90625 28.5,9.40625 C27.9896,8.875 27.7344,8.09375 27.7344,7.0625 C27.7344,5.98958 27.9635,5.1875 28.4219,4.65625 C28.901,4.11458 29.5677,3.84375 30.4219,3.84375 C31.2031,3.84375 31.7969,4.10417 32.2031,4.625 C32.599,5.16667 32.7969,5.875 32.7969,6.75 M32.2969,6.64062 C32.2969,5.79688 32.1042,5.18229 31.7188,4.79688 C31.4062,4.45312 30.974,4.28125 30.4219,4.28125 C29.8281,4.28125 29.3281,4.45833 28.9219,4.8125 C28.5469,5.14583 28.3229,5.75521 28.25,6.64062 L32.2969,6.64062 M35.2656,9.5625 L37.0312,9.5625 L37.0312,2.46875 L34.8281,3.35938 L34.8281,2.85938 L37.0156,1.98438 L37.5625,1.98438 L37.5625,9.5625 L39.3438,9.5625 L39.3438,10 L35.2656,10 L35.2656,9.5625 M43.5781,1.98438 L44.1406,1.98438 L41.3438,11.0156 L40.7812,11.0156 L43.5781,1.98438 M49.6719,4.28125 L49.6719,4.79688 C49.3802,4.61979 49.1354,4.5 48.9375,4.4375 C48.6042,4.33333 48.2865,4.28125 47.9844,4.28125 C47.1198,4.28125 46.5,4.5026 46.125,4.94531 C45.75,5.38802 45.5625,6.07292 45.5625,7 C45.5625,7.9375 45.75,8.6276 46.125,9.07031 C46.5,9.51302 47.1198,9.73438 47.9844,9.73438 C48.276,9.73438 48.5573,9.69271 48.8281,9.60938 C49.1198,9.53646 49.401,9.42188 49.6719,9.26562 L49.6719,9.76562 C49.401,9.90104 49.1198,10 48.8281,10.0625 C48.526,10.125 48.2292,10.1562 47.9375,10.1562 C47.0625,10.1562 46.3646,9.91667 45.8438,9.4375 C45.3229,8.95833 45.0625,8.14323 45.0625,6.99219 C45.0625,5.84115 45.3229,5.02604 45.8438,4.54688 C46.3646,4.07812 47.0625,3.84375 47.9375,3.84375 C48.2292,3.84375 48.5365,3.88542 48.8594,3.96875 C49.1823,4.04167 49.4531,4.14583 49.6719,4.28125 M55.1875,5.01562 C54.8333,4.52604 54.349,4.28125 53.7344,4.28125 C53.1198,4.28125 52.6354,4.52604 52.2812,5.01562 C51.9271,5.49479 51.75,6.15104 51.75,6.98438 C51.75,7.83854 51.9271,8.51042 52.2812,9 C52.6354,9.48958 53.1198,9.73438 53.7344,9.73438 C54.349,9.73438 54.8333,9.48958 55.1875,9 C55.5417,8.5 55.7188,7.82812 55.7188,6.98438 C55.7188,6.16146 55.5417,5.50521 55.1875,5.01562 M53.7344,3.84375 C54.4948,3.84375 55.099,4.13021 55.5469,4.70312 C55.9948,5.27604 56.2188,6.03646 56.2188,6.98438 C56.2188,7.97396 55.9948,8.75521 55.5469,9.32812 C55.099,9.90104 54.4948,10.1875 53.7344,10.1875 C52.9531,10.1875 52.3385,9.90104 51.8906,9.32812 C51.4531,8.75521 51.2344,7.97396 51.2344,6.98438 C51.2344,6.02604 51.4583,5.26302 51.9062,4.69531 C52.3542,4.1276 52.9635,3.84375 53.7344,3.84375 M58.3281,1.64062 L58.8125,1.64062 L58.8125,10 L58.3281,10 L58.3281,1.64062 M64.9531,5.01562 C64.599,4.52604 64.1146,4.28125 63.5,4.28125 C62.8854,4.28125 62.401,4.52604 62.0469,5.01562 C61.6927,5.49479 61.5156,6.15104 61.5156,6.98438 C61.5156,7.83854 61.6927,8.51042 62.0469,9 C62.401,9.48958 62.8854,9.73438 63.5,9.73438 C64.1146,9.73438 64.599,9.48958 64.9531,9 C65.3073,8.5 65.4844,7.82812 65.4844,6.98438 C65.4844,6.16146 65.3073,5.50521 64.9531,5.01562 M63.5,3.84375 C64.2604,3.84375 64.8646,4.13021 65.3125,4.70312 C65.7604,5.27604 65.9844,6.03646 65.9844,6.98438 C65.9844,7.97396 65.7604,8.75521 65.3125,9.32812 C64.8646,9.90104 64.2604,10.1875 63.5,10.1875 C62.7188,10.1875 62.1042,9.90104 61.6562,9.32812 C61.2188,8.75521 61,7.97396 61,6.98438 C61,6.02604 61.224,5.26302 61.6719,4.69531 C62.1198,4.1276 62.7292,3.84375 63.5,3.84375 M71.3594,4.40625 C71.276,4.36458 71.1667,4.33333 71.0312,4.3125 C70.9062,4.29167 70.7552,4.28125 70.5781,4.28125 C69.9635,4.28125 69.4583,4.50521 69.0625,4.95312 C68.7396,5.31771 68.5781,5.94271 68.5781,6.82812 L68.5781,10 L68.0938,10 L68.0938,3.98438 L68.5781,3.98438 L68.5781,5.10938 C68.7448,4.78646 68.974,4.51562 69.2656,4.29688 C69.6615,3.99479 70.1302,3.84375 70.6719,3.84375 C70.8177,3.84375 70.9427,3.84896 71.0469,3.85938 C71.151,3.85938 71.2552,3.86979 71.3594,3.89062 L71.3594,4.40625 M76.9688,12.1719 L76.9688,12.5938 L71.25,12.5938 L71.25,12.1719 L76.9688,12.1719 M81.5156,4.15625 L81.5156,4.70312 C81.1615,4.50521 80.9427,4.39583 80.8594,4.375 C80.6094,4.32292 80.2969,4.29167 79.9219,4.28125 C79.3594,4.28125 78.9167,4.39062 78.5938,4.60938 C78.3438,4.79688 78.2188,5.11458 78.2188,5.5625 C78.2188,5.875 78.3385,6.11458 78.5781,6.28125 C78.8177,6.46875 79.1667,6.61458 79.625,6.71875 L79.9688,6.78125 C80.5417,6.90625 80.974,7.08333 81.2656,7.3125 C81.6094,7.58333 81.7865,7.92708 81.7969,8.34375 C81.7969,8.90625 81.6302,9.34896 81.2969,9.67188 C80.9427,9.99479 80.3646,10.1562 79.5625,10.1562 C79.125,10.1562 78.7917,10.125 78.5625,10.0625 C78.2812,9.98958 77.9896,9.89583 77.6875,9.78125 L77.6875,9.15625 C78.125,9.40625 78.4062,9.55208 78.5312,9.59375 C78.8854,9.6875 79.2396,9.73438 79.5938,9.73438 C80.1667,9.73438 80.5938,9.61458 80.875,9.375 C81.1562,9.125 81.2969,8.80729 81.2969,8.42188 C81.2969,8.08854 81.2031,7.84896 81.0156,7.70312 C80.7448,7.48438 80.3177,7.30729 79.7344,7.17188 L79.3906,7.09375 C78.8802,6.96875 78.4948,6.80208 78.2344,6.59375 C77.901,6.32292 77.7344,5.99479 77.7344,5.60938 C77.7344,4.98438 77.9349,4.53385 78.3359,4.25781 C78.737,3.98177 79.2292,3.84375 79.8125,3.84375 C80.3125,3.84375 80.6562,3.86979 80.8438,3.92188 C81.0729,3.98438 81.2969,4.0625 81.5156,4.15625 M88.5156,6.75 L88.5156,7.0625 L83.9531,7.0625 C83.9531,8.02083 84.1406,8.69792 84.5156,9.09375 C84.9323,9.52083 85.5469,9.73438 86.3594,9.73438 C86.5781,9.73438 86.8646,9.6875 87.2188,9.59375 C87.5729,9.5 87.9271,9.35938 88.2812,9.17188 L88.2812,9.6875 C87.9271,9.84375 87.5651,9.96094 87.1953,10.0391 C86.8255,10.1172 86.5312,10.1562 86.3125,10.1562 C85.3854,10.1562 84.6875,9.90625 84.2188,9.40625 C83.7083,8.875 83.4531,8.09375 83.4531,7.0625 C83.4531,5.98958 83.6823,5.1875 84.1406,4.65625 C84.6198,4.11458 85.2865,3.84375 86.1406,3.84375 C86.9219,3.84375 87.5156,4.10417 87.9219,4.625 C88.3177,5.16667 88.5156,5.875 88.5156,6.75 M88.0156,6.64062 C88.0156,5.79688 87.8229,5.18229 87.4375,4.79688 C87.125,4.45312 86.6927,4.28125 86.1406,4.28125 C85.5469,4.28125 85.0469,4.45833 84.6406,4.8125 C84.2656,5.14583 84.0417,5.75521 83.9688,6.64062 L88.0156,6.64062 M95.1406,6.375 L95.1406,10 L94.6406,10 L94.6406,6.40625 C94.6406,5.625 94.5156,5.07552 94.2656,4.75781 C94.0156,4.4401 93.6458,4.28125 93.1562,4.28125 C92.5833,4.28125 92.099,4.45312 91.7031,4.79688 C91.2865,5.14062 91.0781,5.73958 91.0781,6.59375 L91.0781,10 L90.5938,10 L90.5938,3.98438 L91.0781,3.98438 L91.0781,5.10938 C91.2552,4.74479 91.4896,4.46875 91.7812,4.28125 C92.1979,3.98958 92.6615,3.84375 93.1719,3.84375 C93.776,3.84375 94.2552,4.04688 94.6094,4.45312 C94.9635,4.84896 95.1406,5.48958 95.1406,6.375 M100.969,4.15625 L100.969,4.70312 C100.615,4.50521 100.396,4.39583 100.312,4.375 C100.062,4.32292 99.75,4.29167 99.375,4.28125 C98.8125,4.28125 98.3698,4.39062 98.0469,4.60938 C97.7969,4.79688 97.6719,5.11458 97.6719,5.5625 C97.6719,5.875 97.7917,6.11458 98.0312,6.28125 C98.2708,6.46875 98.6198,6.61458 99.0781,6.71875 L99.4219,6.78125 C99.9948,6.90625 100.427,7.08333 100.719,7.3125 C101.062,7.58333 101.24,7.92708 101.25,8.34375 C101.25,8.90625 101.083,9.34896 100.75,9.67188 C100.396,9.99479 99.8177,10.1562 99.0156,10.1562 C98.5781,10.1562 98.2448,10.125 98.0156,10.0625 C97.7344,9.98958 97.4427,9.89583 97.1406,9.78125 L97.1406,9.15625 C97.5781,9.40625 97.8594,9.55208 97.9844,9.59375 C98.3385,9.6875 98.6927,9.73438 99.0469,9.73438 C99.6198,9.73438 100.047,9.61458 100.328,9.375 C100.609,9.125 100.75,8.80729 100.75,8.42188 C100.75,8.08854 100.656,7.84896 100.469,7.70312 C100.198,7.48438 99.7708,7.30729 99.1875,7.17188 L98.8438,7.09375 C98.3333,6.96875 97.9479,6.80208 97.6875,6.59375 C97.3542,6.32292 97.1875,5.99479 97.1875,5.60938 C97.1875,4.98438 97.388,4.53385 97.7891,4.25781 C98.1901,3.98177 98.6823,3.84375 99.2656,3.84375 C99.7656,3.84375 100.109,3.86979 100.297,3.92188 C100.526,3.98438 100.75,4.0625 100.969,4.15625 M106.859,5.01562 C106.505,4.52604 106.021,4.28125 105.406,4.28125 C104.792,4.28125 104.307,4.52604 103.953,5.01562 C103.599,5.49479 103.422,6.15104 103.422,6.98438 C103.422,7.83854 103.599,8.51042 103.953,9 C104.307,9.48958 104.792,9.73438 105.406,9.73438 C106.021,9.73438 106.505,9.48958 106.859,9 C107.214,8.5 107.391,7.82812 107.391,6.98438 C107.391,6.16146 107.214,5.50521 106.859,5.01562 M105.406,3.84375 C106.167,3.84375 106.771,4.13021 107.219,4.70312 C107.667,5.27604 107.891,6.03646 107.891,6.98438 C107.891,7.97396 107.667,8.75521 107.219,9.32812 C106.771,9.90104 106.167,10.1875 105.406,10.1875 C104.625,10.1875 104.01,9.90104 103.562,9.32812 C103.125,8.75521 102.906,7.97396 102.906,6.98438 C102.906,6.02604 103.13,5.26302 103.578,4.69531 C104.026,4.1276 104.635,3.84375 105.406,3.84375 M113.266,4.40625 C113.182,4.36458 113.073,4.33333 112.938,4.3125 C112.812,4.29167 112.661,4.28125 112.484,4.28125 C111.87,4.28125 111.365,4.50521 110.969,4.95312 C110.646,5.31771 110.484,5.94271 110.484,6.82812 L110.484,10 L110,10 L110,3.98438 L110.484,3.98438 L110.484,5.10938 C110.651,4.78646 110.88,4.51562 111.172,4.29688 C111.568,3.99479 112.036,3.84375 112.578,3.84375 C112.724,3.84375 112.849,3.84896 112.953,3.85938 C113.057,3.85938 113.161,3.86979 113.266,3.89062 L113.266,4.40625"/>
</g>

<g fill="none" stroke="#000000" stroke-opacity="1" stroke-width="1" stroke-linecap="square" stroke-linejoin="bevel" transform="matrix(1.99938,0,0,1.99938,330.012,85.9732)"
font-family="sans" font-size="11" font-weight="100" font-style="normal" 
>
</g>

<g fill="none" stroke="#000000" stroke-opacity="1" stroke-width="1" stroke-linecap="square" stroke-linejoin="bevel" transform="matrix(1.99938,0,0,1.99938,330.012,85.9732)"
font-family="Ubuntu" font-size="11" font-weight="400" font-style="normal" 
>
</g>

<g fill="none" stroke="#000000" stroke-opacity="1" stroke-width="1" stroke-linecap="square" stroke-linejoin="bevel" transform="matrix(1.99938,0,0,1.99938,0.00079975,274.914)"
font-family="Ubuntu" font-size="11" font-weight="400" font-style="normal" 
>
</g>

<g fill="none" stroke="#000000" stroke-opacity="1" stroke-width="1" stroke-linecap="square" stroke-linejoin="bevel" transform="matrix(1.99938,0,0,1.99938,0.00079975,274.914)"
font-family="Ubuntu" font-size="11" font-weight="400" font-style="normal" 
>
</g>

<g fill="none" stroke="#000000" stroke-opacity="1" stroke-width="1" stroke-linecap="square" stroke-linejoin="bevel" transform="matrix(1.99938,0,0,1.99938,0.00079975,274.914)"
font-family="Ubuntu" font-size="11" font-weight="400" font-style="normal" 
>
</g>

<g fill="none" stroke="#000000" stroke-opacity="1" stroke-width="1" stroke-linecap="square" stroke-linejoin="round" transform="matrix(1.99938,0,0,1.99938,0.00079975,274.914)"
font-family="Ubuntu" font-size="11" font-weight="400" font-style="normal" 
>
<rect x="180.189" y="-51.5" width="83.0024" height="35"/>
</g>

<g fill="none" stroke="#000000" stroke-opacity="1" stroke-width="1" stroke-linecap="square" stroke-linejoin="bevel" transform="matrix(1.99938,0,0,1.99938,0.00079975,274.914)"
font-family="Ubuntu" font-size="11" font-weight="400" font-style="normal" 
>
</g>

<g fill="none" stroke="#000000" stroke-opacity="1" stroke-width="1" stroke-linecap="square" stroke-linejoin="bevel" transform="matrix(1.99938,0,0,1.99938,372.78,193.939)"
font-family="Ubuntu" font-size="11" font-weight="400" font-style="normal" 
>
</g>

<g fill="none" stroke="#000000" stroke-opacity="1" stroke-width="1" stroke-linecap="square" stroke-linejoin="bevel" transform="matrix(1.99938,0,0,1.99938,372.78,193.939)"
font-family="sans" font-size="11" font-weight="100" font-style="normal" 
>
</g>

<g fill="#000000" fill-opacity="1" stroke="#000000" stroke-opacity="1" stroke-width="1" stroke-linecap="square" stroke-linejoin="round" transform="matrix(1.99938,0,0,1.99938,372.78,193.939)"
font-family="sans" font-size="11" font-weight="100" font-style="normal" 
>
<path vector-effect="none" fill-rule="nonzero" d="M2.96875,1.98438 L3.53125,1.98438 L0.734375,11.0156 L0.171875,11.0156 L2.96875,1.98438 M5.46875,2.28125 L5.46875,3.98438 L7.5,3.98438 L7.5,4.40625 L5.46875,4.40625 L5.46875,8.01562 C5.46875,8.47396 5.52604,8.79688 5.64062,8.98438 C5.89062,9.38021 6.25,9.57812 6.71875,9.57812 L7.5,9.57812 L7.5,10 L6.73438,10 C6.24479,10 5.82812,9.85677 5.48438,9.57031 C5.14062,9.28385 4.96875,8.76562 4.96875,8.01562 L4.96875,4.40625 L4.25,4.40625 L4.25,3.98438 L4.96875,3.98438 L4.96875,2.28125 L5.46875,2.28125 M9.20312,7.60938 L9.20312,3.98438 L9.6875,3.98438 L9.6875,7.57812 C9.6875,8.35938 9.8125,8.90885 10.0625,9.22656 C10.3125,9.54427 10.6823,9.70312 11.1719,9.70312 C11.7448,9.70312 12.2344,9.53125 12.6406,9.1875 C13.0469,8.84375 13.25,8.24479 13.25,7.39062 L13.25,3.98438 L13.7344,3.98438 L13.7344,10 L13.25,10 L13.25,8.875 C13.0729,9.23958 12.8385,9.51562 12.5469,9.70312 C12.1302,9.99479 11.6667,10.1406 11.1562,10.1406 C10.5625,10.1406 10.0885,9.9375 9.73438,9.53125 C9.38021,9.13542 9.20312,8.49479 9.20312,7.60938 M19.5,4.40625 C19.4167,4.36458 19.3073,4.33333 19.1719,4.3125 C19.0469,4.29167 18.8958,4.28125 18.7188,4.28125 C18.1042,4.28125 17.599,4.50521 17.2031,4.95312 C16.8802,5.31771 16.7188,5.94271 16.7188,6.82812 L16.7188,10 L16.2344,10 L16.2344,3.98438 L16.7188,3.98438 L16.7188,5.10938 C16.8854,4.78646 17.1146,4.51562 17.4062,4.29688 C17.8021,3.99479 18.2708,3.84375 18.8125,3.84375 C18.9583,3.84375 19.0833,3.84896 19.1875,3.85938 C19.2917,3.85938 19.3958,3.86979 19.5,3.89062 L19.5,4.40625 M21.2656,2.28125 L21.2656,3.98438 L23.2969,3.98438 L23.2969,4.40625 L21.2656,4.40625 L21.2656,8.01562 C21.2656,8.47396 21.3229,8.79688 21.4375,8.98438 C21.6875,9.38021 22.0469,9.57812 22.5156,9.57812 L23.2969,9.57812 L23.2969,10 L22.5312,10 C22.0417,10 21.625,9.85677 21.2812,9.57031 C20.9375,9.28385 20.7656,8.76562 20.7656,8.01562 L20.7656,4.40625 L20.0469,4.40625 L20.0469,3.98438 L20.7656,3.98438 L20.7656,2.28125 L21.2656,2.28125 M25.0625,1.64062 L25.5469,1.64062 L25.5469,10 L25.0625,10 L25.0625,1.64062 M32.7969,6.75 L32.7969,7.0625 L28.2344,7.0625 C28.2344,8.02083 28.4219,8.69792 28.7969,9.09375 C29.2135,9.52083 29.8281,9.73438 30.6406,9.73438 C30.8594,9.73438 31.1458,9.6875 31.5,9.59375 C31.8542,9.5 32.2083,9.35938 32.5625,9.17188 L32.5625,9.6875 C32.2083,9.84375 31.8464,9.96094 31.4766,10.0391 C31.1068,10.1172 30.8125,10.1562 30.5938,10.1562 C29.6667,10.1562 28.9688,9.90625 28.5,9.40625 C27.9896,8.875 27.7344,8.09375 27.7344,7.0625 C27.7344,5.98958 27.9635,5.1875 28.4219,4.65625 C28.901,4.11458 29.5677,3.84375 30.4219,3.84375 C31.2031,3.84375 31.7969,4.10417 32.2031,4.625 C32.599,5.16667 32.7969,5.875 32.7969,6.75 M32.2969,6.64062 C32.2969,5.79688 32.1042,5.18229 31.7188,4.79688 C31.4062,4.45312 30.974,4.28125 30.4219,4.28125 C29.8281,4.28125 29.3281,4.45833 28.9219,4.8125 C28.5469,5.14583 28.3229,5.75521 28.25,6.64062 L32.2969,6.64062 M35.2656,9.5625 L37.0312,9.5625 L37.0312,2.46875 L34.8281,3.35938 L34.8281,2.85938 L37.0156,1.98438 L37.5625,1.98438 L37.5625,9.5625 L39.3438,9.5625 L39.3438,10 L35.2656,10 L35.2656,9.5625 M43.5781,1.98438 L44.1406,1.98438 L41.3438,11.0156 L40.7812,11.0156 L43.5781,1.98438 M46.0469,8.64062 L46.0469,12.2812 L45.5625,12.2812 L45.5625,3.98438 L46.0469,3.98438 L46.0469,5.35938 C46.276,4.83854 46.5208,4.47917 46.7812,4.28125 C47.1875,3.98958 47.5729,3.84375 47.9375,3.84375 C48.6458,3.84375 49.237,4.13281 49.7109,4.71094 C50.1849,5.28906 50.4219,6.05208 50.4219,7 C50.4219,7.94792 50.1849,8.71094 49.7109,9.28906 C49.237,9.86719 48.6458,10.1562 47.9375,10.1562 C47.5729,10.1562 47.1875,10.0052 46.7812,9.70312 C46.5208,9.51562 46.276,9.16146 46.0469,8.64062 M49.2812,9.09375 C49.6979,8.67708 49.9062,7.97917 49.9062,7 C49.9062,6.02083 49.6979,5.32292 49.2812,4.90625 C48.8646,4.48958 48.4271,4.28125 47.9688,4.28125 C47.5208,4.28125 47.0885,4.48958 46.6719,4.90625 C46.2656,5.32292 46.0625,6.02083 46.0625,7 C46.0625,7.97917 46.2656,8.67708 46.6719,9.09375 C47.0885,9.51042 47.5208,9.71875 47.9688,9.71875 C48.4271,9.71875 48.8646,9.51042 49.2812,9.09375 M56.1094,5.01562 C55.7552,4.52604 55.2708,4.28125 54.6562,4.28125 C54.0417,4.28125 53.5573,4.52604 53.2031,5.01562 C52.849,5.49479 52.6719,6.15104 52.6719,6.98438 C52.6719,7.83854 52.849,8.51042 53.2031,9 C53.5573,9.48958 54.0417,9.73438 54.6562,9.73438 C55.2708,9.73438 55.7552,9.48958 56.1094,9 C56.4635,8.5 56.6406,7.82812 56.6406,6.98438 C56.6406,6.16146 56.4635,5.50521 56.1094,5.01562 M54.6562,3.84375 C55.4167,3.84375 56.0208,4.13021 56.4688,4.70312 C56.9167,5.27604 57.1406,6.03646 57.1406,6.98438 C57.1406,7.97396 56.9167,8.75521 56.4688,9.32812 C56.0208,9.90104 55.4167,10.1875 54.6562,10.1875 C53.875,10.1875 53.2604,9.90104 52.8125,9.32812 C52.375,8.75521 52.1562,7.97396 52.1562,6.98438 C52.1562,6.02604 52.3802,5.26302 52.8281,4.69531 C53.276,4.1276 53.8854,3.84375 54.6562,3.84375 M62.6562,4.15625 L62.6562,4.70312 C62.3021,4.50521 62.0833,4.39583 62,4.375 C61.75,4.32292 61.4375,4.29167 61.0625,4.28125 C60.5,4.28125 60.0573,4.39062 59.7344,4.60938 C59.4844,4.79688 59.3594,5.11458 59.3594,5.5625 C59.3594,5.875 59.4792,6.11458 59.7188,6.28125 C59.9583,6.46875 60.3073,6.61458 60.7656,6.71875 L61.1094,6.78125 C61.6823,6.90625 62.1146,7.08333 62.4062,7.3125 C62.75,7.58333 62.9271,7.92708 62.9375,8.34375 C62.9375,8.90625 62.7708,9.34896 62.4375,9.67188 C62.0833,9.99479 61.5052,10.1562 60.7031,10.1562 C60.2656,10.1562 59.9323,10.125 59.7031,10.0625 C59.4219,9.98958 59.1302,9.89583 58.8281,9.78125 L58.8281,9.15625 C59.2656,9.40625 59.5469,9.55208 59.6719,9.59375 C60.026,9.6875 60.3802,9.73438 60.7344,9.73438 C61.3073,9.73438 61.7344,9.61458 62.0156,9.375 C62.2969,9.125 62.4375,8.80729 62.4375,8.42188 C62.4375,8.08854 62.3438,7.84896 62.1562,7.70312 C61.8854,7.48438 61.4583,7.30729 60.875,7.17188 L60.5312,7.09375 C60.0208,6.96875 59.6354,6.80208 59.375,6.59375 C59.0417,6.32292 58.875,5.99479 58.875,5.60938 C58.875,4.98438 59.0755,4.53385 59.4766,4.25781 C59.8776,3.98177 60.3698,3.84375 60.9531,3.84375 C61.4531,3.84375 61.7969,3.86979 61.9844,3.92188 C62.2135,3.98438 62.4375,4.0625 62.6562,4.15625 M69.6562,6.75 L69.6562,7.0625 L65.0938,7.0625 C65.0938,8.02083 65.2812,8.69792 65.6562,9.09375 C66.0729,9.52083 66.6875,9.73438 67.5,9.73438 C67.7188,9.73438 68.0052,9.6875 68.3594,9.59375 C68.7135,9.5 69.0677,9.35938 69.4219,9.17188 L69.4219,9.6875 C69.0677,9.84375 68.7057,9.96094 68.3359,10.0391 C67.9661,10.1172 67.6719,10.1562 67.4531,10.1562 C66.526,10.1562 65.8281,9.90625 65.3594,9.40625 C64.849,8.875 64.5938,8.09375 64.5938,7.0625 C64.5938,5.98958 64.8229,5.1875 65.2812,4.65625 C65.7604,4.11458 66.4271,3.84375 67.2812,3.84375 C68.0625,3.84375 68.6562,4.10417 69.0625,4.625 C69.4583,5.16667 69.6562,5.875 69.6562,6.75 M69.1562,6.64062 C69.1562,5.79688 68.9635,5.18229 68.5781,4.79688 C68.2656,4.45312 67.8333,4.28125 67.2812,4.28125 C66.6875,4.28125 66.1875,4.45833 65.7812,4.8125 C65.4062,5.14583 65.1823,5.75521 65.1094,6.64062 L69.1562,6.64062"/>
</g>

<g fill="none" stroke="#000000" stroke-opacity="1" stroke-width="1" stroke-linecap="square" stroke-linejoin="bevel" transform="matrix(1.99938,0,0,1.99938,372.78,193.939)"
font-family="sans" font-size="11" font-weight="100" font-style="normal" 
>
</g>

<g fill="none" stroke="#000000" stroke-opacity="1" stroke-width="1" stroke-linecap="square" stroke-linejoin="bevel" transform="matrix(1.99938,0,0,1.99938,372.78,193.939)"
font-family="Ubuntu" font-size="11" font-weight="400" font-style="normal" 
>
</g>

<g fill="none" stroke="#000000" stroke-opacity="1" stroke-width="1" stroke-linecap="square" stroke-linejoin="bevel" transform="matrix(1.99938,0,0,1.99938,0.00079975,274.914)"
font-family="Ubuntu" font-size="11" font-weight="400" font-style="normal" 
>
</g>

<g fill="none" stroke="#000000" stroke-opacity="1" stroke-width="1" stroke-linecap="square" stroke-linejoin="bevel" transform="matrix(1.99938,0,0,1.99938,0.00079975,274.914)"
font-family="Ubuntu" font-size="11" font-weight="400" font-style="normal" 
>
</g>

<g fill="none" stroke="#000000" stroke-opacity="1" stroke-width="1" stroke-linecap="square" stroke-linejoin="bevel" transform="matrix(1.99938,0,0,1.99938,0.00079975,274.914)"
font-family="Ubuntu" font-size="11" font-weight="400" font-style="normal" 
>
</g>

<g fill="none" stroke="#000000" stroke-opacity="1" stroke-width="1" stroke-linecap="square" stroke-linejoin="round" transform="matrix(1.99938,0,0,1.99938,0.00079975,274.914)"
font-family="Ubuntu" font-size="11" font-weight="400" font-style="normal" 
>
<rect x="158.189" y="-105.5" width="127.002" height="35"/>
</g>

<g fill="none" stroke="#000000" stroke-opacity="1" stroke-width="1" stroke-linecap="square" stroke-linejoin="bevel" transform="matrix(1.99938,0,0,1.99938,0.00079975,274.914)"
font-family="Ubuntu" font-size="11" font-weight="400" font-style="normal" 
>
</g>

<g fill="none" stroke="#000000" stroke-opacity="1" stroke-width="1" stroke-linecap="square" stroke-linejoin="bevel" transform="matrix(1.99938,0,0,1.99938,330.012,85.9732)"
font-family="Ubuntu" font-size="11" font-weight="400" font-style="normal" 
>
</g>

<g fill="none" stroke="#000000" stroke-opacity="1" stroke-width="1" stroke-linecap="square" stroke-linejoin="bevel" transform="matrix(1.99938,0,0,1.99938,330.012,85.9732)"
font-family="sans" font-size="11" font-weight="100" font-style="normal" 
>
</g>

<g fill="#000000" fill-opacity="1" stroke="#000000" stroke-opacity="1" stroke-width="1" stroke-linecap="square" stroke-linejoin="round" transform="matrix(1.99938,0,0,1.99938,330.012,85.9732)"
font-family="sans" font-size="11" font-weight="100" font-style="normal" 
>
<path vector-effect="none" fill-rule="nonzero" d="M2.96875,1.98438 L3.53125,1.98438 L0.734375,11.0156 L0.171875,11.0156 L2.96875,1.98438 M5.46875,2.28125 L5.46875,3.98438 L7.5,3.98438 L7.5,4.40625 L5.46875,4.40625 L5.46875,8.01562 C5.46875,8.47396 5.52604,8.79688 5.64062,8.98438 C5.89062,9.38021 6.25,9.57812 6.71875,9.57812 L7.5,9.57812 L7.5,10 L6.73438,10 C6.24479,10 5.82812,9.85677 5.48438,9.57031 C5.14062,9.28385 4.96875,8.76562 4.96875,8.01562 L4.96875,4.40625 L4.25,4.40625 L4.25,3.98438 L4.96875,3.98438 L4.96875,2.28125 L5.46875,2.28125 M9.20312,7.60938 L9.20312,3.98438 L9.6875,3.98438 L9.6875,7.57812 C9.6875,8.35938 9.8125,8.90885 10.0625,9.22656 C10.3125,9.54427 10.6823,9.70312 11.1719,9.70312 C11.7448,9.70312 12.2344,9.53125 12.6406,9.1875 C13.0469,8.84375 13.25,8.24479 13.25,7.39062 L13.25,3.98438 L13.7344,3.98438 L13.7344,10 L13.25,10 L13.25,8.875 C13.0729,9.23958 12.8385,9.51562 12.5469,9.70312 C12.1302,9.99479 11.6667,10.1406 11.1562,10.1406 C10.5625,10.1406 10.0885,9.9375 9.73438,9.53125 C9.38021,9.13542 9.20312,8.49479 9.20312,7.60938 M19.5,4.40625 C19.4167,4.36458 19.3073,4.33333 19.1719,4.3125 C19.0469,4.29167 18.8958,4.28125 18.7188,4.28125 C18.1042,4.28125 17.599,4.50521 17.2031,4.95312 C16.8802,5.31771 16.7188,5.94271 16.7188,6.82812 L16.7188,10 L16.2344,10 L16.2344,3.98438 L16.7188,3.98438 L16.7188,5.10938 C16.8854,4.78646 17.1146,4.51562 17.4062,4.29688 C17.8021,3.99479 18.2708,3.84375 18.8125,3.84375 C18.9583,3.84375 19.0833,3.84896 19.1875,3.85938 C19.2917,3.85938 19.3958,3.86979 19.5,3.89062 L19.5,4.40625 M21.2656,2.28125 L21.2656,3.98438 L23.2969,3.98438 L23.2969,4.40625 L21.2656,4.40625 L21.2656,8.01562 C21.2656,8.47396 21.3229,8.79688 21.4375,8.98438 C21.6875,9.38021 22.0469,9.57812 22.5156,9.57812 L23.2969,9.57812 L23.2969,10 L22.5312,10 C22.0417,10 21.625,9.85677 21.2812,9.57031 C20.9375,9.28385 20.7656,8.76562 20.7656,8.01562 L20.7656,4.40625 L20.0469,4.40625 L20.0469,3.98438 L20.7656,3.98438 L20.7656,2.28125 L21.2656,2.28125 M25.0625,1.64062 L25.5469,1.64062 L25.5469,10 L25.0625,10 L25.0625,1.64062 M32.7969,6.75 L32.7969,7.0625 L28.2344,7.0625 C28.2344,8.02083 28.4219,8.69792 28.7969,9.09375 C29.2135,9.52083 29.8281,9.73438 30.6406,9.73438 C30.8594,9.73438 31.1458,9.6875 31.5,9.59375 C31.8542,9.5 32.2083,9.35938 32.5625,9.17188 L32.5625,9.6875 C32.2083,9.84375 31.8464,9.96094 31.4766,10.0391 C31.1068,10.1172 30.8125,10.1562 30.5938,10.1562 C29.6667,10.1562 28.9688,9.90625 28.5,9.40625 C27.9896,8.875 27.7344,8.09375 27.7344,7.0625 C27.7344,5.98958 27.9635,5.1875 28.4219,4.65625 C28.901,4.11458 29.5677,3.84375 30.4219,3.84375 C31.2031,3.84375 31.7969,4.10417 32.2031,4.625 C32.599,5.16667 32.7969,5.875 32.7969,6.75 M32.2969,6.64062 C32.2969,5.79688 32.1042,5.18229 31.7188,4.79688 C31.4062,4.45312 30.974,4.28125 30.4219,4.28125 C29.8281,4.28125 29.3281,4.45833 28.9219,4.8125 C28.5469,5.14583 28.3229,5.75521 28.25,6.64062 L32.2969,6.64062 M35.2656,9.5625 L37.0312,9.5625 L37.0312,2.46875 L34.8281,3.35938 L34.8281,2.85938 L37.0156,1.98438 L37.5625,1.98438 L37.5625,9.5625 L39.3438,9.5625 L39.3438,10 L35.2656,10 L35.2656,9.5625 M43.5781,1.98438 L44.1406,1.98438 L41.3438,11.0156 L40.7812,11.0156 L43.5781,1.98438 M49.6719,4.28125 L49.6719,4.79688 C49.3802,4.61979 49.1354,4.5 48.9375,4.4375 C48.6042,4.33333 48.2865,4.28125 47.9844,4.28125 C47.1198,4.28125 46.5,4.5026 46.125,4.94531 C45.75,5.38802 45.5625,6.07292 45.5625,7 C45.5625,7.9375 45.75,8.6276 46.125,9.07031 C46.5,9.51302 47.1198,9.73438 47.9844,9.73438 C48.276,9.73438 48.5573,9.69271 48.8281,9.60938 C49.1198,9.53646 49.401,9.42188 49.6719,9.26562 L49.6719,9.76562 C49.401,9.90104 49.1198,10 48.8281,10.0625 C48.526,10.125 48.2292,10.1562 47.9375,10.1562 C47.0625,10.1562 46.3646,9.91667 45.8438,9.4375 C45.3229,8.95833 45.0625,8.14323 45.0625,6.99219 C45.0625,5.84115 45.3229,5.02604 45.8438,4.54688 C46.3646,4.07812 47.0625,3.84375 47.9375,3.84375 C48.2292,3.84375 48.5365,3.88542 48.8594,3.96875 C49.1823,4.04167 49.4531,4.14583 49.6719,4.28125 M55.1875,5.01562 C54.8333,4.52604 54.349,4.28125 53.7344,4.28125 C53.1198,4.28125 52.6354,4.52604 52.2812,5.01562 C51.9271,5.49479 51.75,6.15104 51.75,6.98438 C51.75,7.83854 51.9271,8.51042 52.2812,9 C52.6354,9.48958 53.1198,9.73438 53.7344,9.73438 C54.349,9.73438 54.8333,9.48958 55.1875,9 C55.5417,8.5 55.7188,7.82812 55.7188,6.98438 C55.7188,6.16146 55.5417,5.50521 55.1875,5.01562 M53.7344,3.84375 C54.4948,3.84375 55.099,4.13021 55.5469,4.70312 C55.9948,5.27604 56.2188,6.03646 56.2188,6.98438 C56.2188,7.97396 55.9948,8.75521 55.5469,9.32812 C55.099,9.90104 54.4948,10.1875 53.7344,10.1875 C52.9531,10.1875 52.3385,9.90104 51.8906,9.32812 C51.4531,8.75521 51.2344,7.97396 51.2344,6.98438 C51.2344,6.02604 51.4583,5.26302 51.9062,4.69531 C52.3542,4.1276 52.9635,3.84375 53.7344,3.84375 M58.3281,1.64062 L58.8125,1.64062 L58.8125,10 L58.3281,10 L58.3281,1.64062 M64.9531,5.01562 C64.599,4.52604 64.1146,4.28125 63.5,4.28125 C62.8854,4.28125 62.401,4.52604 62.0469,5.01562 C61.6927,5.49479 61.5156,6.15104 61.5156,6.98438 C61.5156,7.83854 61.6927,8.51042 62.0469,9 C62.401,9.48958 62.8854,9.73438 63.5,9.73438 C64.1146,9.73438 64.599,9.48958 64.9531,9 C65.3073,8.5 65.4844,7.82812 65.4844,6.98438 C65.4844,6.16146 65.3073,5.50521 64.9531,5.01562 M63.5,3.84375 C64.2604,3.84375 64.8646,4.13021 65.3125,4.70312 C65.7604,5.27604 65.9844,6.03646 65.9844,6.98438 C65.9844,7.97396 65.7604,8.75521 65.3125,9.32812 C64.8646,9.90104 64.2604,10.1875 63.5,10.1875 C62.7188,10.1875 62.1042,9.90104 61.6562,9.32812 C61.2188,8.75521 61,7.97396 61,6.98438 C61,6.02604 61.224,5.26302 61.6719,4.69531 C62.1198,4.1276 62.7292,3.84375 63.5,3.84375 M71.3594,4.40625 C71.276,4.36458 71.1667,4.33333 71.0312,4.3125 C70.9062,4.29167 70.7552,4.28125 70.5781,4.28125 C69.9635,4.28125 69.4583,4.50521 69.0625,4.95312 C68.7396,5.31771 68.5781,5.94271 68.5781,6.82812 L68.5781,10 L68.0938,10 L68.0938,3.98438 L68.5781,3.98438 L68.5781,5.10938 C68.7448,4.78646 68.974,4.51562 69.2656,4.29688 C69.6615,3.99479 70.1302,3.84375 70.6719,3.84375 C70.8177,3.84375 70.9427,3.84896 71.0469,3.85938 C71.151,3.85938 71.2552,3.86979 71.3594,3.89062 L71.3594,4.40625 M76.9688,12.1719 L76.9688,12.5938 L71.25,12.5938 L71.25,12.1719 L76.9688,12.1719 M81.5156,4.15625 L81.5156,4.70312 C81.1615,4.50521 80.9427,4.39583 80.8594,4.375 C80.6094,4.32292 80.2969,4.29167 79.9219,4.28125 C79.3594,4.28125 78.9167,4.39062 78.5938,4.60938 C78.3438,4.79688 78.2188,5.11458 78.2188,5.5625 C78.2188,5.875 78.3385,6.11458 78.5781,6.28125 C78.8177,6.46875 79.1667,6.61458 79.625,6.71875 L79.9688,6.78125 C80.5417,6.90625 80.974,7.08333 81.2656,7.3125 C81.6094,7.58333 81.7865,7.92708 81.7969,8.34375 C81.7969,8.90625 81.6302,9.34896 81.2969,9.67188 C80.9427,9.99479 80.3646,10.1562 79.5625,10.1562 C79.125,10.1562 78.7917,10.125 78.5625,10.0625 C78.2812,9.98958 77.9896,9.89583 77.6875,9.78125 L77.6875,9.15625 C78.125,9.40625 78.4062,9.55208 78.5312,9.59375 C78.8854,9.6875 79.2396,9.73438 79.5938,9.73438 C80.1667,9.73438 80.5938,9.61458 80.875,9.375 C81.1562,9.125 81.2969,8.80729 81.2969,8.42188 C81.2969,8.08854 81.2031,7.84896 81.0156,7.70312 C80.7448,7.48438 80.3177,7.30729 79.7344,7.17188 L79.3906,7.09375 C78.8802,6.96875 78.4948,6.80208 78.2344,6.59375 C77.901,6.32292 77.7344,5.99479 77.7344,5.60938 C77.7344,4.98438 77.9349,4.53385 78.3359,4.25781 C78.737,3.98177 79.2292,3.84375 79.8125,3.84375 C80.3125,3.84375 80.6562,3.86979 80.8438,3.92188 C81.0729,3.98438 81.2969,4.0625 81.5156,4.15625 M88.5156,6.75 L88.5156,7.0625 L83.9531,7.0625 C83.9531,8.02083 84.1406,8.69792 84.5156,9.09375 C84.9323,9.52083 85.5469,9.73438 86.3594,9.73438 C86.5781,9.73438 86.8646,9.6875 87.2188,9.59375 C87.5729,9.5 87.9271,9.35938 88.2812,9.17188 L88.2812,9.6875 C87.9271,9.84375 87.5651,9.96094 87.1953,10.0391 C86.8255,10.1172 86.5312,10.1562 86.3125,10.1562 C85.3854,10.1562 84.6875,9.90625 84.2188,9.40625 C83.7083,8.875 83.4531,8.09375 83.4531,7.0625 C83.4531,5.98958 83.6823,5.1875 84.1406,4.65625 C84.6198,4.11458 85.2865,3.84375 86.1406,3.84375 C86.9219,3.84375 87.5156,4.10417 87.9219,4.625 C88.3177,5.16667 88.5156,5.875 88.5156,6.75 M88.0156,6.64062 C88.0156,5.79688 87.8229,5.18229 87.4375,4.79688 C87.125,4.45312 86.6927,4.28125 86.1406,4.28125 C85.5469,4.28125 85.0469,4.45833 84.6406,4.8125 C84.2656,5.14583 84.0417,5.75521 83.9688,6.64062 L88.0156,6.64062 M95.1406,6.375 L95.1406,10 L94.6406,10 L94.6406,6.40625 C94.6406,5.625 94.5156,5.07552 94.2656,4.75781 C94.0156,4.4401 93.6458,4.28125 93.1562,4.28125 C92.5833,4.28125 92.099,4.45312 91.7031,4.79688 C91.2865,5.14062 91.0781,5.73958 91.0781,6.59375 L91.0781,10 L90.5938,10 L90.5938,3.98438 L91.0781,3.98438 L91.0781,5.10938 C91.2552,4.74479 91.4896,4.46875 91.7812,4.28125 C92.1979,3.98958 92.6615,3.84375 93.1719,3.84375 C93.776,3.84375 94.2552,4.04688 94.6094,4.45312 C94.9635,4.84896 95.1406,5.48958 95.1406,6.375 M100.969,4.15625 L100.969,4.70312 C100.615,4.50521 100.396,4.39583 100.312,4.375 C100.062,4.32292 99.75,4.29167 99.375,4.28125 C98.8125,4.28125 98.3698,4.39062 98.0469,4.60938 C97.7969,4.79688 97.6719,5.11458 97.6719,5.5625 C97.6719,5.875 97.7917,6.11458 98.0312,6.28125 C98.2708,6.46875 98.6198,6.61458 99.0781,6.71875 L99.4219,6.78125 C99.9948,6.90625 100.427,7.08333 100.719,7.3125 C101.062,7.58333 101.24,7.92708 101.25,8.34375 C101.25,8.90625 101.083,9.34896 100.75,9.67188 C100.396,9.99479 99.8177,10.1562 99.0156,10.1562 C98.5781,10.1562 98.2448,10.125 98.0156,10.0625 C97.7344,9.98958 97.4427,9.89583 97.1406,9.78125 L97.1406,9.15625 C97.5781,9.40625 97.8594,9.55208 97.9844,9.59375 C98.3385,9.6875 98.6927,9.73438 99.0469,9.73438 C99.6198,9.73438 100.047,9.61458 100.328,9.375 C100.609,9.125 100.75,8.80729 100.75,8.42188 C100.75,8.08854 100.656,7.84896 100.469,7.70312 C100.198,7.48438 99.7708,7.30729 99.1875,7.17188 L98.8438,7.09375 C98.3333,6.96875 97.9479,6.80208 97.6875,6.59375 C97.3542,6.32292 97.1875,5.99479 97.1875,5.60938 C97.1875,4.98438 97.388,4.53385 97.7891,4.25781 C98.1901,3.98177 98.6823,3.84375 99.2656,3.84375 C99.7656,3.84375 100.109,3.86979 100.297,3.92188 C100.526,3.98438 100.75,4.0625 100.969,4.15625 M106.859,5.01562 C106.505,4.52604 106.021,4.28125 105.406,4.28125 C104.792,4.28125 104.307,4.52604 103.953,5.01562 C103.599,5.49479 103.422,6.15104 103.422,6.98438 C103.422,7.83854 103.599,8.51042 103.953,9 C104.307,9.48958 104.792,9.73438 105.406,9.73438 C106.021,9.73438 106.505,9.48958 106.859,9 C107.214,8.5 107.391,7.82812 107.391,6.98438 C107.391,6.16146 107.214,5.50521 106.859,5.01562 M105.406,3.84375 C106.167,3.84375 106.771,4.13021 107.219,4.70312 C107.667,5.27604 107.891,6.03646 107.891,6.98438 C107.891,7.97396 107.667,8.75521 107.219,9.32812 C106.771,9.90104 106.167,10.1875 105.406,10.1875 C104.625,10.1875 104.01,9.90104 103.562,9.32812 C103.125,8.75521 102.906,7.97396 102.906,6.98438 C102.906,6.02604 103.13,5.26302 103.578,4.69531 C104.026,4.1276 104.635,3.84375 105.406,3.84375 M113.266,4.40625 C113.182,4.36458 113.073,4.33333 112.938,4.3125 C112.812,4.29167 112.661,4.28125 112.484,4.28125 C111.87,4.28125 111.365,4.50521 110.969,4.95312 C110.646,5.31771 110.484,5.94271 110.484,6.82812 L110.484,10 L110,10 L110,3.98438 L110.484,3.98438 L110.484,5.10938 C110.651,4.78646 110.88,4.51562 111.172,4.29688 C111.568,3.99479 112.036,3.84375 112.578,3.84375 C112.724,3.84375 112.849,3.84896 112.953,3.85938 C113.057,3.85938 113.161,3.86979 113.266,3.89062 L113.266,4.40625"/>
</g>

<g fill="none" stroke="#000000" stroke-opacity="1" stroke-width="1" stroke-linecap="square" stroke-linejoin="bevel" transform="matrix(1.99938,0,0,1.99938,330.012,85.9732)"
font-family="sans" font-size="11" font-weight="100" font-style="normal" 
>
</g>

<g fill="none" stroke="#000000" stroke-opacity="1" stroke-width="1" stroke-linecap="square" stroke-linejoin="bevel" transform="matrix(1.99938,0,0,1.99938,330.012,85.9732)"
font-family="Ubuntu" font-size="11" font-weight="400" font-style="normal" 
>
</g>

<g fill="none" stroke="#000000" stroke-opacity="1" stroke-width="1" stroke-linecap="square" stroke-linejoin="bevel" transform="matrix(1.99938,0,0,1.99938,0.00079975,274.914)"
font-family="Ubuntu" font-size="11" font-weight="400" font-style="normal" 
>
</g>

<g fill="none" stroke="#000000" stroke-opacity="1" stroke-width="1" stroke-linecap="square" stroke-linejoin="bevel" transform="matrix(1.99938,0,0,1.99938,0.00079975,274.914)"
font-family="Ubuntu" font-size="11" font-weight="400" font-style="normal" 
>
</g>

<g fill="none" stroke="#000000" stroke-opacity="1" stroke-width="1" stroke-linecap="square" stroke-linejoin="bevel" transform="matrix(1.99938,0,0,1.99938,0.00079975,274.914)"
font-family="Ubuntu" font-size="11" font-weight="400" font-style="normal" 
>
</g>

<g fill="none" stroke="#000000" stroke-opacity="1" stroke-width="1" stroke-linecap="square" stroke-linejoin="round" transform="matrix(1.99938,0,0,1.99938,0.00079975,274.914)"
font-family="Ubuntu" font-size="11" font-weight="400" font-style="normal" 
>
<ellipse cx="70.844" cy="-61" rx="70.3444" ry="17.5"/>
</g>

<g fill="none" stroke="#000000" stroke-opacity="1" stroke-width="1" stroke-linecap="square" stroke-linejoin="bevel" transform="matrix(1.99938,0,0,1.99938,0.00079975,274.914)"
font-family="Ubuntu" font-size="11" font-weight="400" font-style="normal" 
>
</g>

<g fill="none" stroke="#000000" stroke-opacity="1" stroke-width="1" stroke-linecap="square" stroke-linejoin="bevel" transform="matrix(1.99938,0,0,1.99938,48.2831,139.956)"
font-family="Ubuntu" font-size="11" font-weight="400" font-style="normal" 
>
</g>

<g fill="none" stroke="#000000" stroke-opacity="1" stroke-width="1" stroke-linecap="square" stroke-linejoin="bevel" transform="matrix(1.99938,0,0,1.99938,48.2831,139.956)"
font-family="sans" font-size="11" font-weight="100" font-style="normal" 
>
</g>

<g fill="#000000" fill-opacity="1" stroke="#000000" stroke-opacity="1" stroke-width="1" stroke-linecap="square" stroke-linejoin="round" transform="matrix(1.99938,0,0,1.99938,48.2831,139.956)"
font-family="sans" font-size="11" font-weight="100" font-style="normal" 
>
<path vector-effect="none" fill-rule="nonzero" d="M2.96875,1.98438 L3.53125,1.98438 L0.734375,11.0156 L0.171875,11.0156 L2.96875,1.98438 M8.35938,4.15625 L8.35938,4.70312 C8.00521,4.50521 7.78646,4.39583 7.70312,4.375 C7.45312,4.32292 7.14062,4.29167 6.76562,4.28125 C6.20312,4.28125 5.76042,4.39062 5.4375,4.60938 C5.1875,4.79688 5.0625,5.11458 5.0625,5.5625 C5.0625,5.875 5.18229,6.11458 5.42188,6.28125 C5.66146,6.46875 6.01042,6.61458 6.46875,6.71875 L6.8125,6.78125 C7.38542,6.90625 7.81771,7.08333 8.10938,7.3125 C8.45312,7.58333 8.63021,7.92708 8.64062,8.34375 C8.64062,8.90625 8.47396,9.34896 8.14062,9.67188 C7.78646,9.99479 7.20833,10.1562 6.40625,10.1562 C5.96875,10.1562 5.63542,10.125 5.40625,10.0625 C5.125,9.98958 4.83333,9.89583 4.53125,9.78125 L4.53125,9.15625 C4.96875,9.40625 5.25,9.55208 5.375,9.59375 C5.72917,9.6875 6.08333,9.73438 6.4375,9.73438 C7.01042,9.73438 7.4375,9.61458 7.71875,9.375 C8,9.125 8.14062,8.80729 8.14062,8.42188 C8.14062,8.08854 8.04688,7.84896 7.85938,7.70312 C7.58854,7.48438 7.16146,7.30729 6.57812,7.17188 L6.23438,7.09375 C5.72396,6.96875 5.33854,6.80208 5.07812,6.59375 C4.74479,6.32292 4.57812,5.99479 4.57812,5.60938 C4.57812,4.98438 4.77865,4.53385 5.17969,4.25781 C5.58073,3.98177 6.07292,3.84375 6.65625,3.84375 C7.15625,3.84375 7.5,3.86979 7.6875,3.92188 C7.91667,3.98438 8.14062,4.0625 8.35938,4.15625 M10.6562,3.98438 L11.1562,3.98438 L11.1562,10 L10.6562,10 L10.6562,3.98438 M10.6562,1.64062 L11.1562,1.64062 L11.1562,2.3125 L10.6562,2.3125 L10.6562,1.64062 M18.0469,5.29688 C18.2344,4.80729 18.526,4.44271 18.9219,4.20312 C19.3073,3.96354 19.7604,3.84375 20.2812,3.84375 C20.8021,3.84375 21.2188,4.02604 21.5312,4.39062 C21.8542,4.75521 22.0156,5.41667 22.0156,6.375 L22.0156,10 L21.5312,10 L21.5312,6.40625 C21.5312,5.57292 21.4167,5.01042 21.1875,4.71875 C20.9583,4.42708 20.651,4.28125 20.2656,4.28125 C19.7135,4.28125 19.2292,4.44792 18.8125,4.78125 C18.3438,5.15625 18.1094,5.76042 18.1094,6.59375 L18.1094,10 L17.625,10 L17.625,6.40625 C17.625,5.60417 17.513,5.04948 17.2891,4.74219 C17.0651,4.4349 16.7552,4.28125 16.3594,4.28125 C15.8073,4.28125 15.3229,4.45312 14.9062,4.79688 C14.4375,5.16146 14.2031,5.76042 14.2031,6.59375 L14.2031,10 L13.7188,10 L13.7188,3.98438 L14.2031,3.98438 L14.2031,5.10938 C14.3802,4.71354 14.6562,4.40104 15.0312,4.17188 C15.3958,3.95312 15.849,3.84375 16.3906,3.84375 C16.7448,3.84375 17.0833,3.95833 17.4062,4.1875 C17.6562,4.375 17.8698,4.74479 18.0469,5.29688 M24.3594,7.60938 L24.3594,3.98438 L24.8438,3.98438 L24.8438,7.57812 C24.8438,8.35938 24.9688,8.90885 25.2188,9.22656 C25.4688,9.54427 25.8385,9.70312 26.3281,9.70312 C26.901,9.70312 27.3906,9.53125 27.7969,9.1875 C28.2031,8.84375 28.4062,8.24479 28.4062,7.39062 L28.4062,3.98438 L28.8906,3.98438 L28.8906,10 L28.4062,10 L28.4062,8.875 C28.2292,9.23958 27.9948,9.51562 27.7031,9.70312 C27.2865,9.99479 26.8229,10.1406 26.3125,10.1406 C25.7188,10.1406 25.2448,9.9375 24.8906,9.53125 C24.5365,9.13542 24.3594,8.49479 24.3594,7.60938 M31.3906,1.64062 L31.875,1.64062 L31.875,10 L31.3906,10 L31.3906,1.64062 M36.8438,6.60938 C36.0417,6.60938 35.4661,6.75 35.1172,7.03125 C34.7682,7.3125 34.5938,7.72396 34.5938,8.26562 C34.5938,8.79688 34.7396,9.17448 35.0312,9.39844 C35.3229,9.6224 35.6667,9.73438 36.0625,9.73438 C36.8125,9.73438 37.3542,9.41667 37.6875,8.78125 C38.0208,8.13542 38.1875,7.53125 38.1875,6.96875 L38.1875,6.60938 L36.8438,6.60938 M38.6875,6.5625 L38.6875,10 L38.1875,10 L38.1875,8.35938 C37.9167,9.16146 37.5521,9.67188 37.0938,9.89062 C36.7396,10.0677 36.3802,10.1562 36.0156,10.1562 C35.4219,10.1562 34.9531,9.99479 34.6094,9.67188 C34.2656,9.34896 34.0938,8.8776 34.0938,8.25781 C34.0938,7.63802 34.3177,7.14062 34.7656,6.76562 C35.2135,6.39062 35.9427,6.20312 36.9531,6.20312 L38.1875,6.20312 L38.1875,6.10938 C38.1875,5.57812 38.0312,5.14062 37.7188,4.79688 C37.4271,4.45312 36.9323,4.28125 36.2344,4.28125 C35.8906,4.28125 35.5417,4.34375 35.1875,4.46875 C34.9583,4.55208 34.6562,4.71875 34.2812,4.96875 L34.2812,4.4375 C34.6042,4.23958 34.9062,4.09896 35.1875,4.01562 C35.5833,3.90104 35.9635,3.84375 36.3281,3.84375 C37.0469,3.84375 37.6354,4.05729 38.0938,4.48438 C38.4896,4.84896 38.6875,5.54167 38.6875,6.5625 M41.6875,2.28125 L41.6875,3.98438 L43.7188,3.98438 L43.7188,4.40625 L41.6875,4.40625 L41.6875,8.01562 C41.6875,8.47396 41.7448,8.79688 41.8594,8.98438 C42.1094,9.38021 42.4688,9.57812 42.9375,9.57812 L43.7188,9.57812 L43.7188,10 L42.9531,10 C42.4635,10 42.0469,9.85677 41.7031,9.57031 C41.3594,9.28385 41.1875,8.76562 41.1875,8.01562 L41.1875,4.40625 L40.4688,4.40625 L40.4688,3.98438 L41.1875,3.98438 L41.1875,2.28125 L41.6875,2.28125 M50.1719,6.75 L50.1719,7.0625 L45.6094,7.0625 C45.6094,8.02083 45.7969,8.69792 46.1719,9.09375 C46.5885,9.52083 47.2031,9.73438 48.0156,9.73438 C48.2344,9.73438 48.5208,9.6875 48.875,9.59375 C49.2292,9.5 49.5833,9.35938 49.9375,9.17188 L49.9375,9.6875 C49.5833,9.84375 49.2214,9.96094 48.8516,10.0391 C48.4818,10.1172 48.1875,10.1562 47.9688,10.1562 C47.0417,10.1562 46.3438,9.90625 45.875,9.40625 C45.3646,8.875 45.1094,8.09375 45.1094,7.0625 C45.1094,5.98958 45.3385,5.1875 45.7969,4.65625 C46.276,4.11458 46.9427,3.84375 47.7969,3.84375 C48.5781,3.84375 49.1719,4.10417 49.5781,4.625 C49.974,5.16667 50.1719,5.875 50.1719,6.75 M49.6719,6.64062 C49.6719,5.79688 49.4792,5.18229 49.0938,4.79688 C48.7812,4.45312 48.349,4.28125 47.7969,4.28125 C47.2031,4.28125 46.7031,4.45833 46.2969,4.8125 C45.9219,5.14583 45.6979,5.75521 45.625,6.64062 L49.6719,6.64062 M56.25,5.35938 L56.25,1.64062 L56.7188,1.64062 L56.7188,10 L56.25,10 L56.25,8.64062 C56.0208,9.16146 55.7708,9.51562 55.5,9.70312 C55.1042,10.0052 54.724,10.1562 54.3594,10.1562 C53.651,10.1562 53.0599,9.86719 52.5859,9.28906 C52.112,8.71094 51.875,7.94792 51.875,7 C51.875,6.05208 52.112,5.28906 52.5859,4.71094 C53.0599,4.13281 53.651,3.84375 54.3594,3.84375 C54.724,3.84375 55.1042,3.98958 55.5,4.28125 C55.7708,4.47917 56.0208,4.83854 56.25,5.35938 M53.0156,4.90625 C52.599,5.32292 52.3906,6.02083 52.3906,7 C52.3906,7.97917 52.599,8.67708 53.0156,9.09375 C53.4323,9.51042 53.8698,9.71875 54.3281,9.71875 C54.776,9.71875 55.2083,9.51042 55.625,9.09375 C56.0312,8.67708 56.2344,7.97917 56.2344,7 C56.2344,6.02083 56.0312,5.32292 55.625,4.90625 C55.2083,4.48958 54.776,4.28125 54.3281,4.28125 C53.8698,4.28125 53.4323,4.48958 53.0156,4.90625 M63.5781,12.1719 L63.5781,12.5938 L57.8594,12.5938 L57.8594,12.1719 L63.5781,12.1719 M65.2344,2.28125 L65.2344,3.98438 L67.2656,3.98438 L67.2656,4.40625 L65.2344,4.40625 L65.2344,8.01562 C65.2344,8.47396 65.2917,8.79688 65.4062,8.98438 C65.6562,9.38021 66.0156,9.57812 66.4844,9.57812 L67.2656,9.57812 L67.2656,10 L66.5,10 C66.0104,10 65.5938,9.85677 65.25,9.57031 C64.9062,9.28385 64.7344,8.76562 64.7344,8.01562 L64.7344,4.40625 L64.0156,4.40625 L64.0156,3.98438 L64.7344,3.98438 L64.7344,2.28125 L65.2344,2.28125 M68.9688,7.60938 L68.9688,3.98438 L69.4531,3.98438 L69.4531,7.57812 C69.4531,8.35938 69.5781,8.90885 69.8281,9.22656 C70.0781,9.54427 70.4479,9.70312 70.9375,9.70312 C71.5104,9.70312 72,9.53125 72.4062,9.1875 C72.8125,8.84375 73.0156,8.24479 73.0156,7.39062 L73.0156,3.98438 L73.5,3.98438 L73.5,10 L73.0156,10 L73.0156,8.875 C72.8385,9.23958 72.6042,9.51562 72.3125,9.70312 C71.8958,9.99479 71.4323,10.1406 70.9219,10.1406 C70.3281,10.1406 69.8542,9.9375 69.5,9.53125 C69.1458,9.13542 68.9688,8.49479 68.9688,7.60938 M79.2656,4.40625 C79.1823,4.36458 79.0729,4.33333 78.9375,4.3125 C78.8125,4.29167 78.6615,4.28125 78.4844,4.28125 C77.8698,4.28125 77.3646,4.50521 76.9688,4.95312 C76.6458,5.31771 76.4844,5.94271 76.4844,6.82812 L76.4844,10 L76,10 L76,3.98438 L76.4844,3.98438 L76.4844,5.10938 C76.651,4.78646 76.8802,4.51562 77.1719,4.29688 C77.5677,3.99479 78.0365,3.84375 78.5781,3.84375 C78.724,3.84375 78.849,3.84896 78.9531,3.85938 C79.0573,3.85938 79.1615,3.86979 79.2656,3.89062 L79.2656,4.40625 M81.0312,2.28125 L81.0312,3.98438 L83.0625,3.98438 L83.0625,4.40625 L81.0312,4.40625 L81.0312,8.01562 C81.0312,8.47396 81.0885,8.79688 81.2031,8.98438 C81.4531,9.38021 81.8125,9.57812 82.2812,9.57812 L83.0625,9.57812 L83.0625,10 L82.2969,10 C81.8073,10 81.3906,9.85677 81.0469,9.57031 C80.7031,9.28385 80.5312,8.76562 80.5312,8.01562 L80.5312,4.40625 L79.8125,4.40625 L79.8125,3.98438 L80.5312,3.98438 L80.5312,2.28125 L81.0312,2.28125 M84.8281,1.64062 L85.3125,1.64062 L85.3125,10 L84.8281,10 L84.8281,1.64062 M92.5625,6.75 L92.5625,7.0625 L88,7.0625 C88,8.02083 88.1875,8.69792 88.5625,9.09375 C88.9792,9.52083 89.5938,9.73438 90.4062,9.73438 C90.625,9.73438 90.9115,9.6875 91.2656,9.59375 C91.6198,9.5 91.974,9.35938 92.3281,9.17188 L92.3281,9.6875 C91.974,9.84375 91.612,9.96094 91.2422,10.0391 C90.8724,10.1172 90.5781,10.1562 90.3594,10.1562 C89.4323,10.1562 88.7344,9.90625 88.2656,9.40625 C87.7552,8.875 87.5,8.09375 87.5,7.0625 C87.5,5.98958 87.7292,5.1875 88.1875,4.65625 C88.6667,4.11458 89.3333,3.84375 90.1875,3.84375 C90.9688,3.84375 91.5625,4.10417 91.9688,4.625 C92.3646,5.16667 92.5625,5.875 92.5625,6.75 M92.0625,6.64062 C92.0625,5.79688 91.8698,5.18229 91.4844,4.79688 C91.1719,4.45312 90.7396,4.28125 90.1875,4.28125 C89.5938,4.28125 89.0938,4.45833 88.6875,4.8125 C88.3125,5.14583 88.0885,5.75521 88.0156,6.64062 L92.0625,6.64062"/>
</g>

<g fill="none" stroke="#000000" stroke-opacity="1" stroke-width="1" stroke-linecap="square" stroke-linejoin="bevel" transform="matrix(1.99938,0,0,1.99938,48.2831,139.956)"
font-family="sans" font-size="11" font-weight="100" font-style="normal" 
>
</g>

<g fill="none" stroke="#000000" stroke-opacity="1" stroke-width="1" stroke-linecap="square" stroke-linejoin="bevel" transform="matrix(1.99938,0,0,1.99938,48.2831,139.956)"
font-family="Ubuntu" font-size="11" font-weight="400" font-style="normal" 
>
</g>

<g fill="none" stroke="#000000" stroke-opacity="1" stroke-width="1" stroke-linecap="square" stroke-linejoin="bevel" transform="matrix(1.99938,0,0,1.99938,0.00079975,274.914)"
font-family="Ubuntu" font-size="11" font-weight="400" font-style="normal" 
>
</g>

<g fill="none" stroke="#000000" stroke-opacity="1" stroke-width="1" stroke-linecap="square" stroke-linejoin="bevel" transform="matrix(1.99938,0,0,1.99938,0.00079975,274.914)"
font-family="Ubuntu" font-size="11" font-weight="400" font-style="normal" 
>
</g>

<g fill="none" stroke="#000000" stroke-opacity="1" stroke-width="1" stroke-linecap="square" stroke-linejoin="bevel" transform="matrix(1.99938,0,0,1.99938,0.00079975,274.914)"
font-family="Ubuntu" font-size="11" font-weight="400" font-style="normal" 
>
</g>

<g fill="none" stroke="#000000" stroke-opacity="1" stroke-width="1" stroke-linecap="square" stroke-linejoin="round" transform="matrix(1.99938,0,0,1.99938,0.00079975,274.914)"
font-family="Ubuntu" font-size="11" font-weight="400" font-style="normal" 
>
<ellipse cx="425.18" cy="-61" rx="122.991" ry="17.5"/>
</g>

<g fill="none" stroke="#000000" stroke-opacity="1" stroke-width="1" stroke-linecap="square" stroke-linejoin="bevel" transform="matrix(1.99938,0,0,1.99938,0.00079975,274.914)"
font-family="Ubuntu" font-size="11" font-weight="400" font-style="normal" 
>
</g>

<g fill="none" stroke="#000000" stroke-opacity="1" stroke-width="1" stroke-linecap="square" stroke-linejoin="bevel" transform="matrix(1.99938,0,0,1.99938,672.713,139.956)"
font-family="Ubuntu" font-size="11" font-weight="400" font-style="normal" 
>
</g>

<g fill="none" stroke="#000000" stroke-opacity="1" stroke-width="1" stroke-linecap="square" stroke-linejoin="bevel" transform="matrix(1.99938,0,0,1.99938,672.713,139.956)"
font-family="sans" font-size="11" font-weight="100" font-style="normal" 
>
</g>

<g fill="#000000" fill-opacity="1" stroke="#000000" stroke-opacity="1" stroke-width="1" stroke-linecap="square" stroke-linejoin="round" transform="matrix(1.99938,0,0,1.99938,672.713,139.956)"
font-family="sans" font-size="11" font-weight="100" font-style="normal" 
>
<path vector-effect="none" fill-rule="nonzero" d="M2.96875,1.98438 L3.53125,1.98438 L0.734375,11.0156 L0.171875,11.0156 L2.96875,1.98438 M8.21875,4.40625 C8.13542,4.36458 8.02604,4.33333 7.89062,4.3125 C7.76562,4.29167 7.61458,4.28125 7.4375,4.28125 C6.82292,4.28125 6.31771,4.50521 5.92188,4.95312 C5.59896,5.31771 5.4375,5.94271 5.4375,6.82812 L5.4375,10 L4.95312,10 L4.95312,3.98438 L5.4375,3.98438 L5.4375,5.10938 C5.60417,4.78646 5.83333,4.51562 6.125,4.29688 C6.52083,3.99479 6.98958,3.84375 7.53125,3.84375 C7.67708,3.84375 7.80208,3.84896 7.90625,3.85938 C8.01042,3.85938 8.11458,3.86979 8.21875,3.89062 L8.21875,4.40625 M14.1562,6.75 L14.1562,7.0625 L9.59375,7.0625 C9.59375,8.02083 9.78125,8.69792 10.1562,9.09375 C10.5729,9.52083 11.1875,9.73438 12,9.73438 C12.2188,9.73438 12.5052,9.6875 12.8594,9.59375 C13.2135,9.5 13.5677,9.35938 13.9219,9.17188 L13.9219,9.6875 C13.5677,9.84375 13.2057,9.96094 12.8359,10.0391 C12.4661,10.1172 12.1719,10.1562 11.9531,10.1562 C11.026,10.1562 10.3281,9.90625 9.85938,9.40625 C9.34896,8.875 9.09375,8.09375 9.09375,7.0625 C9.09375,5.98958 9.32292,5.1875 9.78125,4.65625 C10.2604,4.11458 10.9271,3.84375 11.7812,3.84375 C12.5625,3.84375 13.1562,4.10417 13.5625,4.625 C13.9583,5.16667 14.1562,5.875 14.1562,6.75 M13.6562,6.64062 C13.6562,5.79688 13.4635,5.18229 13.0781,4.79688 C12.7656,4.45312 12.3333,4.28125 11.7812,4.28125 C11.1875,4.28125 10.6875,4.45833 10.2812,4.8125 C9.90625,5.14583 9.68229,5.75521 9.60938,6.64062 L13.6562,6.64062 M20.3438,4.28125 L20.3438,4.79688 C20.0521,4.61979 19.8073,4.5 19.6094,4.4375 C19.276,4.33333 18.9583,4.28125 18.6562,4.28125 C17.7917,4.28125 17.1719,4.5026 16.7969,4.94531 C16.4219,5.38802 16.2344,6.07292 16.2344,7 C16.2344,7.9375 16.4219,8.6276 16.7969,9.07031 C17.1719,9.51302 17.7917,9.73438 18.6562,9.73438 C18.9479,9.73438 19.2292,9.69271 19.5,9.60938 C19.7917,9.53646 20.0729,9.42188 20.3438,9.26562 L20.3438,9.76562 C20.0729,9.90104 19.7917,10 19.5,10.0625 C19.1979,10.125 18.901,10.1562 18.6094,10.1562 C17.7344,10.1562 17.0365,9.91667 16.5156,9.4375 C15.9948,8.95833 15.7344,8.14323 15.7344,6.99219 C15.7344,5.84115 15.9948,5.02604 16.5156,4.54688 C17.0365,4.07812 17.7344,3.84375 18.6094,3.84375 C18.901,3.84375 19.2083,3.88542 19.5312,3.96875 C19.8542,4.04167 20.125,4.14583 20.3438,4.28125 M25.8594,5.01562 C25.5052,4.52604 25.0208,4.28125 24.4062,4.28125 C23.7917,4.28125 23.3073,4.52604 22.9531,5.01562 C22.599,5.49479 22.4219,6.15104 22.4219,6.98438 C22.4219,7.83854 22.599,8.51042 22.9531,9 C23.3073,9.48958 23.7917,9.73438 24.4062,9.73438 C25.0208,9.73438 25.5052,9.48958 25.8594,9 C26.2135,8.5 26.3906,7.82812 26.3906,6.98438 C26.3906,6.16146 26.2135,5.50521 25.8594,5.01562 M24.4062,3.84375 C25.1667,3.84375 25.7708,4.13021 26.2188,4.70312 C26.6667,5.27604 26.8906,6.03646 26.8906,6.98438 C26.8906,7.97396 26.6667,8.75521 26.2188,9.32812 C25.7708,9.90104 25.1667,10.1875 24.4062,10.1875 C23.625,10.1875 23.0104,9.90104 22.5625,9.32812 C22.125,8.75521 21.9062,7.97396 21.9062,6.98438 C21.9062,6.02604 22.1302,5.26302 22.5781,4.69531 C23.026,4.1276 23.6354,3.84375 24.4062,3.84375 M32.2656,4.40625 C32.1823,4.36458 32.0729,4.33333 31.9375,4.3125 C31.8125,4.29167 31.6615,4.28125 31.4844,4.28125 C30.8698,4.28125 30.3646,4.50521 29.9688,4.95312 C29.6458,5.31771 29.4844,5.94271 29.4844,6.82812 L29.4844,10 L29,10 L29,3.98438 L29.4844,3.98438 L29.4844,5.10938 C29.651,4.78646 29.8802,4.51562 30.1719,4.29688 C30.5677,3.99479 31.0365,3.84375 31.5781,3.84375 C31.724,3.84375 31.849,3.84896 31.9531,3.85938 C32.0573,3.85938 32.1615,3.86979 32.2656,3.89062 L32.2656,4.40625 M37.5156,5.35938 L37.5156,1.64062 L37.9844,1.64062 L37.9844,10 L37.5156,10 L37.5156,8.64062 C37.2865,9.16146 37.0365,9.51562 36.7656,9.70312 C36.3698,10.0052 35.9896,10.1562 35.625,10.1562 C34.9167,10.1562 34.3255,9.86719 33.8516,9.28906 C33.3776,8.71094 33.1406,7.94792 33.1406,7 C33.1406,6.05208 33.3776,5.28906 33.8516,4.71094 C34.3255,4.13281 34.9167,3.84375 35.625,3.84375 C35.9896,3.84375 36.3698,3.98958 36.7656,4.28125 C37.0365,4.47917 37.2865,4.83854 37.5156,5.35938 M34.2812,4.90625 C33.8646,5.32292 33.6562,6.02083 33.6562,7 C33.6562,7.97917 33.8646,8.67708 34.2812,9.09375 C34.6979,9.51042 35.1354,9.71875 35.5938,9.71875 C36.0417,9.71875 36.474,9.51042 36.8906,9.09375 C37.2969,8.67708 37.5,7.97917 37.5,7 C37.5,6.02083 37.2969,5.32292 36.8906,4.90625 C36.474,4.48958 36.0417,4.28125 35.5938,4.28125 C35.1354,4.28125 34.6979,4.48958 34.2812,4.90625 M44.8438,12.1719 L44.8438,12.5938 L39.125,12.5938 L39.125,12.1719 L44.8438,12.1719 M46.375,9.5625 L48.1406,9.5625 L48.1406,2.46875 L45.9375,3.35938 L45.9375,2.85938 L48.125,1.98438 L48.6719,1.98438 L48.6719,9.5625 L50.4531,9.5625 L50.4531,10 L46.375,10 L46.375,9.5625 M53.125,1.98438 L56.9219,1.98438 L56.9219,2.42188 L53.6562,2.42188 L53.6562,5.10938 C53.8229,5.04688 53.9844,5 54.1406,4.96875 C54.2969,4.9375 54.526,4.92188 54.8281,4.92188 C55.651,4.92188 56.3021,5.15104 56.7812,5.60938 C57.2604,6.05729 57.5,6.66146 57.5,7.42188 C57.5,8.28646 57.25,8.95833 56.75,9.4375 C56.2604,9.91667 55.5677,10.1562 54.6719,10.1562 C54.3802,10.1562 54.0781,10.1302 53.7656,10.0781 C53.4531,10.026 53.1302,9.95312 52.7969,9.85938 L52.7969,9.3125 C53.0781,9.4375 53.3698,9.53646 53.6719,9.60938 C53.974,9.67188 54.2917,9.70312 54.625,9.70312 C55.3333,9.70312 55.901,9.5 56.3281,9.09375 C56.7552,8.6875 56.9688,8.13021 56.9688,7.42188 C56.9688,6.78646 56.7604,6.28646 56.3438,5.92188 C55.9271,5.54688 55.3646,5.35938 54.6562,5.35938 C54.5104,5.35938 54.2917,5.40104 54,5.48438 C53.7188,5.55729 53.4271,5.67708 53.125,5.84375 L53.125,1.98438 M60.1875,9.82812 L60.1875,9.26562 C60.4375,9.41146 60.6875,9.52604 60.9375,9.60938 C61.1875,9.68229 61.4375,9.71875 61.6875,9.71875 C62.75,9.71875 63.4948,9.19792 63.9219,8.15625 C64.1198,7.67708 64.2083,6.86979 64.1875,5.73438 C64.0104,6.13021 63.7812,6.4375 63.5,6.65625 C63.1354,6.94792 62.6771,7.09375 62.125,7.09375 C61.4479,7.09375 60.8854,6.85417 60.4375,6.375 C59.9896,5.90625 59.7656,5.30208 59.7656,4.5625 C59.7656,3.73958 59.9844,3.07812 60.4219,2.57812 C60.8698,2.07812 61.4427,1.82812 62.1406,1.82812 C62.9844,1.82812 63.6302,2.1875 64.0781,2.90625 C64.526,3.61458 64.75,4.64583 64.75,6 C64.75,7.4375 64.474,8.48958 63.9219,9.15625 C63.3802,9.82292 62.6458,10.1562 61.7188,10.1562 C61.4688,10.1562 61.2188,10.1302 60.9688,10.0781 C60.7188,10.026 60.4583,9.94271 60.1875,9.82812 M60.8281,6.05469 C61.1615,6.44531 61.612,6.64062 62.1797,6.64062 C62.7474,6.64062 63.1979,6.44531 63.5312,6.05469 C63.8646,5.66406 64.0312,5.13021 64.0312,4.45312 C64.0312,3.77604 63.8646,3.24219 63.5312,2.85156 C63.1979,2.46094 62.7474,2.26562 62.1797,2.26562 C61.612,2.26562 61.1615,2.46094 60.8281,2.85156 C60.4948,3.24219 60.3281,3.77604 60.3281,4.45312 C60.3281,5.13021 60.4948,5.66406 60.8281,6.05469 M70.6719,5.92969 C70.3385,5.53906 69.888,5.34375 69.3203,5.34375 C68.7526,5.34375 68.3021,5.53906 67.9688,5.92969 C67.6354,6.32031 67.4688,6.85417 67.4688,7.53125 C67.4688,8.20833 67.6354,8.74219 67.9688,9.13281 C68.3021,9.52344 68.7526,9.71875 69.3203,9.71875 C69.888,9.71875 70.3385,9.52344 70.6719,9.13281 C71.0052,8.74219 71.1719,8.20833 71.1719,7.53125 C71.1719,6.85417 71.0052,6.32031 70.6719,5.92969 M71.3281,2.15625 L71.3281,2.73438 C71.0781,2.57812 70.8229,2.46354 70.5625,2.39062 C70.3125,2.30729 70.0625,2.26562 69.8125,2.26562 C68.75,2.26562 68.0052,2.79167 67.5781,3.84375 C67.3802,4.3125 67.2917,5.11979 67.3125,6.26562 C67.4896,5.86979 67.7188,5.5625 68,5.34375 C68.3646,5.05208 68.8281,4.90625 69.3906,4.90625 C70.0573,4.90625 70.6146,5.14062 71.0625,5.60938 C71.5104,6.08854 71.7344,6.69271 71.7344,7.42188 C71.7344,8.24479 71.5156,8.90625 71.0781,9.40625 C70.6406,9.90625 70.0677,10.1562 69.3594,10.1562 C68.5156,10.1562 67.8698,9.80208 67.4219,9.09375 C66.974,8.375 66.75,7.34375 66.75,6 C66.75,4.5625 67.026,3.50521 67.5781,2.82812 C68.1198,2.16146 68.8542,1.82812 69.7812,1.82812 C70.0312,1.82812 70.2812,1.85938 70.5312,1.92188 C70.7812,1.97396 71.0469,2.05208 71.3281,2.15625 M74.3125,9.5625 L76.0781,9.5625 L76.0781,2.46875 L73.875,3.35938 L73.875,2.85938 L76.0625,1.98438 L76.6094,1.98438 L76.6094,9.5625 L78.3906,9.5625 L78.3906,10 L74.3125,10 L74.3125,9.5625 M80.5625,1.98438 L85.4375,1.98438 L85.4375,2.4375 L82.5312,10 L81.9531,10 L84.875,2.42188 L80.5625,2.42188 L80.5625,1.98438 M88.2812,9.5625 L90.0469,9.5625 L90.0469,2.46875 L87.8438,3.35938 L87.8438,2.85938 L90.0312,1.98438 L90.5781,1.98438 L90.5781,9.5625 L92.3594,9.5625 L92.3594,10 L88.2812,10 L88.2812,9.5625 M97.125,6 C96.5208,6 96.0469,6.16667 95.7031,6.5 C95.3698,6.83333 95.2031,7.28906 95.2031,7.86719 C95.2031,8.44531 95.3698,8.90104 95.7031,9.23438 C96.0469,9.56771 96.5182,9.73438 97.1172,9.73438 C97.7161,9.73438 98.1875,9.56771 98.5312,9.23438 C98.8854,8.90104 99.0625,8.44792 99.0625,7.875 C99.0625,7.29167 98.8906,6.83333 98.5469,6.5 C98.2031,6.16667 97.7292,6 97.125,6 M96.0312,5.73438 C95.6875,5.59896 95.4062,5.38021 95.1875,5.07812 C94.9479,4.76562 94.8281,4.38021 94.8281,3.92188 C94.8281,3.27604 95.0339,2.76562 95.4453,2.39062 C95.8568,2.01562 96.4167,1.82812 97.125,1.82812 C97.8333,1.82812 98.3906,2.01562 98.7969,2.39062 C99.2031,2.76562 99.4062,3.27604 99.4062,3.92188 C99.4062,4.39062 99.2917,4.77604 99.0625,5.07812 C98.8229,5.39062 98.5417,5.60938 98.2188,5.73438 C98.6146,5.85938 98.9375,6.09375 99.1875,6.4375 C99.4479,6.79167 99.5781,7.22917 99.5781,7.75 C99.5781,8.52083 99.3698,9.11458 98.9531,9.53125 C98.526,9.94792 97.9167,10.1562 97.125,10.1562 C96.3333,10.1562 95.724,9.94792 95.2969,9.53125 C94.8698,9.11458 94.6562,8.52083 94.6562,7.75 C94.6562,7.22917 94.7865,6.79167 95.0469,6.4375 C95.3385,6.08333 95.6667,5.84896 96.0312,5.73438 M95.8359,2.71094 C95.5286,2.9974 95.375,3.40104 95.375,3.92188 C95.375,4.44271 95.5286,4.84896 95.8359,5.14062 C96.1432,5.43229 96.5729,5.57812 97.125,5.57812 C97.6667,5.57812 98.0938,5.43229 98.4062,5.14062 C98.7188,4.84896 98.875,4.44271 98.875,3.92188 C98.875,3.40104 98.7188,3 98.4062,2.71875 C98.0938,2.42708 97.6667,2.28125 97.125,2.28125 C96.5729,2.28125 96.1432,2.42448 95.8359,2.71094 M105.031,2.28125 L101.703,7.4375 L105.031,7.4375 L105.031,2.28125 M104.609,1.98438 L105.578,1.98438 L105.578,7.4375 L106.734,7.4375 L106.734,7.875 L105.578,7.875 L105.578,10 L105.031,10 L105.031,7.875 L101.141,7.875 L101.141,7.3125 L104.609,1.98438 M111.062,2.28125 C110.406,2.28125 109.917,2.59896 109.594,3.23438 C109.281,3.86979 109.125,4.78906 109.125,5.99219 C109.125,7.19531 109.281,8.11979 109.594,8.76562 C109.917,9.40104 110.406,9.71875 111.062,9.71875 C111.74,9.71875 112.234,9.40104 112.547,8.76562 C112.87,8.11979 113.031,7.19531 113.031,5.99219 C113.031,4.78906 112.87,3.86979 112.547,3.23438 C112.234,2.59896 111.74,2.28125 111.062,2.28125 M111.062,1.82812 C111.833,1.82812 112.443,2.14583 112.891,2.78125 C113.349,3.41667 113.578,4.48958 113.578,6 C113.578,7.51042 113.349,8.58333 112.891,9.21875 C112.443,9.84375 111.833,10.1562 111.062,10.1562 C110.312,10.1562 109.708,9.84375 109.25,9.21875 C108.802,8.58333 108.578,7.51042 108.578,6 C108.578,4.48958 108.802,3.41667 109.25,2.78125 C109.708,2.14583 110.312,1.82812 111.062,1.82812 M119.047,5.67188 C119.474,5.77604 119.812,6.01042 120.062,6.375 C120.302,6.71875 120.422,7.15104 120.422,7.67188 C120.422,8.46354 120.195,9.07552 119.742,9.50781 C119.289,9.9401 118.562,10.1562 117.562,10.1562 C117.219,10.1562 116.87,10.1042 116.516,10 C116.161,9.89583 115.797,9.72917 115.422,9.5 L115.422,8.92188 C115.724,9.18229 116.052,9.38021 116.406,9.51562 C116.76,9.65104 117.125,9.71875 117.5,9.71875 C118.271,9.71875 118.859,9.54167 119.266,9.1875 C119.672,8.84375 119.875,8.33854 119.875,7.67188 C119.875,7.13021 119.688,6.70312 119.312,6.39062 C118.938,6.08854 118.411,5.9375 117.734,5.9375 L116.797,5.9375 L116.797,5.48438 L117.781,5.48438 C118.396,5.48438 118.87,5.35938 119.203,5.10938 C119.526,4.85938 119.688,4.5 119.688,4.03125 C119.688,3.46875 119.521,3.03646 119.188,2.73438 C118.844,2.43229 118.359,2.28125 117.734,2.28125 C117.443,2.28125 117.125,2.33333 116.781,2.4375 C116.438,2.54167 116.062,2.70312 115.656,2.92188 L115.656,2.375 C116.073,2.19792 116.458,2.06771 116.812,1.98438 C117.177,1.89062 117.516,1.83854 117.828,1.82812 C118.651,1.82812 119.26,2.01562 119.656,2.39062 C120.042,2.76562 120.234,3.27604 120.234,3.92188 C120.234,4.33854 120.13,4.70833 119.922,5.03125 C119.724,5.34375 119.432,5.55729 119.047,5.67188 M123.203,9.5625 L124.969,9.5625 L124.969,2.46875 L122.766,3.35938 L122.766,2.85938 L124.953,1.98438 L125.5,1.98438 L125.5,9.5625 L127.281,9.5625 L127.281,10 L123.203,10 L123.203,9.5625 M129.875,9.5625 L134.438,9.5625 L134.438,10 L129.312,10 L129.312,9.4375 L131.312,7.35938 C131.802,6.85938 132.25,6.39583 132.656,5.96875 C133.021,5.57292 133.266,5.26562 133.391,5.04688 C133.516,4.82812 133.578,4.53646 133.578,4.17188 C133.578,3.55729 133.391,3.0625 133.016,2.6875 C132.745,2.41667 132.302,2.28125 131.688,2.28125 C131.323,2.28125 130.911,2.38542 130.453,2.59375 C130.245,2.6875 129.896,2.89062 129.406,3.20312 L129.406,2.64062 C129.615,2.49479 129.917,2.32812 130.312,2.14062 C130.771,1.94271 131.224,1.83854 131.672,1.82812 C132.359,1.82812 132.938,2.01042 133.406,2.375 C133.865,2.72917 134.094,3.3125 134.094,4.125 C134.094,4.45833 134.031,4.77083 133.906,5.0625 C133.76,5.40625 133.536,5.75521 133.234,6.10938 C133.141,6.21354 132.854,6.51042 132.375,7 L129.875,9.5625 M139.953,2.28125 L136.625,7.4375 L139.953,7.4375 L139.953,2.28125 M139.531,1.98438 L140.5,1.98438 L140.5,7.4375 L141.656,7.4375 L141.656,7.875 L140.5,7.875 L140.5,10 L139.953,10 L139.953,7.875 L136.062,7.875 L136.062,7.3125 L139.531,1.98438 M146.984,5.67188 C147.411,5.77604 147.75,6.01042 148,6.375 C148.24,6.71875 148.359,7.15104 148.359,7.67188 C148.359,8.46354 148.133,9.07552 147.68,9.50781 C147.227,9.9401 146.5,10.1562 145.5,10.1562 C145.156,10.1562 144.807,10.1042 144.453,10 C144.099,9.89583 143.734,9.72917 143.359,9.5 L143.359,8.92188 C143.661,9.18229 143.99,9.38021 144.344,9.51562 C144.698,9.65104 145.062,9.71875 145.438,9.71875 C146.208,9.71875 146.797,9.54167 147.203,9.1875 C147.609,8.84375 147.812,8.33854 147.812,7.67188 C147.812,7.13021 147.625,6.70312 147.25,6.39062 C146.875,6.08854 146.349,5.9375 145.672,5.9375 L144.734,5.9375 L144.734,5.48438 L145.719,5.48438 C146.333,5.48438 146.807,5.35938 147.141,5.10938 C147.464,4.85938 147.625,4.5 147.625,4.03125 C147.625,3.46875 147.458,3.03646 147.125,2.73438 C146.781,2.43229 146.297,2.28125 145.672,2.28125 C145.38,2.28125 145.062,2.33333 144.719,2.4375 C144.375,2.54167 144,2.70312 143.594,2.92188 L143.594,2.375 C144.01,2.19792 144.396,2.06771 144.75,1.98438 C145.115,1.89062 145.453,1.83854 145.766,1.82812 C146.589,1.82812 147.198,2.01562 147.594,2.39062 C147.979,2.76562 148.172,3.27604 148.172,3.92188 C148.172,4.33854 148.068,4.70833 147.859,5.03125 C147.661,5.34375 147.37,5.55729 146.984,5.67188 M151.141,9.5625 L152.906,9.5625 L152.906,2.46875 L150.703,3.35938 L150.703,2.85938 L152.891,1.98438 L153.438,1.98438 L153.438,9.5625 L155.219,9.5625 L155.219,10 L151.141,10 L151.141,9.5625 M159.953,2.28125 C159.297,2.28125 158.807,2.59896 158.484,3.23438 C158.172,3.86979 158.016,4.78906 158.016,5.99219 C158.016,7.19531 158.172,8.11979 158.484,8.76562 C158.807,9.40104 159.297,9.71875 159.953,9.71875 C160.63,9.71875 161.125,9.40104 161.438,8.76562 C161.76,8.11979 161.922,7.19531 161.922,5.99219 C161.922,4.78906 161.76,3.86979 161.438,3.23438 C161.125,2.59896 160.63,2.28125 159.953,2.28125 M159.953,1.82812 C160.724,1.82812 161.333,2.14583 161.781,2.78125 C162.24,3.41667 162.469,4.48958 162.469,6 C162.469,7.51042 162.24,8.58333 161.781,9.21875 C161.333,9.84375 160.724,10.1562 159.953,10.1562 C159.203,10.1562 158.599,9.84375 158.141,9.21875 C157.693,8.58333 157.469,7.51042 157.469,6 C157.469,4.48958 157.693,3.41667 158.141,2.78125 C158.599,2.14583 159.203,1.82812 159.953,1.82812 M166.969,6 C166.365,6 165.891,6.16667 165.547,6.5 C165.214,6.83333 165.047,7.28906 165.047,7.86719 C165.047,8.44531 165.214,8.90104 165.547,9.23438 C165.891,9.56771 166.362,9.73438 166.961,9.73438 C167.56,9.73438 168.031,9.56771 168.375,9.23438 C168.729,8.90104 168.906,8.44792 168.906,7.875 C168.906,7.29167 168.734,6.83333 168.391,6.5 C168.047,6.16667 167.573,6 166.969,6 M165.875,5.73438 C165.531,5.59896 165.25,5.38021 165.031,5.07812 C164.792,4.76562 164.672,4.38021 164.672,3.92188 C164.672,3.27604 164.878,2.76562 165.289,2.39062 C165.701,2.01562 166.26,1.82812 166.969,1.82812 C167.677,1.82812 168.234,2.01562 168.641,2.39062 C169.047,2.76562 169.25,3.27604 169.25,3.92188 C169.25,4.39062 169.135,4.77604 168.906,5.07812 C168.667,5.39062 168.385,5.60938 168.062,5.73438 C168.458,5.85938 168.781,6.09375 169.031,6.4375 C169.292,6.79167 169.422,7.22917 169.422,7.75 C169.422,8.52083 169.214,9.11458 168.797,9.53125 C168.37,9.94792 167.76,10.1562 166.969,10.1562 C166.177,10.1562 165.568,9.94792 165.141,9.53125 C164.714,9.11458 164.5,8.52083 164.5,7.75 C164.5,7.22917 164.63,6.79167 164.891,6.4375 C165.182,6.08333 165.51,5.84896 165.875,5.73438 M165.68,2.71094 C165.372,2.9974 165.219,3.40104 165.219,3.92188 C165.219,4.44271 165.372,4.84896 165.68,5.14062 C165.987,5.43229 166.417,5.57812 166.969,5.57812 C167.51,5.57812 167.938,5.43229 168.25,5.14062 C168.562,4.84896 168.719,4.44271 168.719,3.92188 C168.719,3.40104 168.562,3 168.25,2.71875 C167.938,2.42708 167.51,2.28125 166.969,2.28125 C166.417,2.28125 165.987,2.42448 165.68,2.71094 M174.875,2.28125 L171.547,7.4375 L174.875,7.4375 L174.875,2.28125 M174.453,1.98438 L175.422,1.98438 L175.422,7.4375 L176.578,7.4375 L176.578,7.875 L175.422,7.875 L175.422,10 L174.875,10 L174.875,7.875 L170.984,7.875 L170.984,7.3125 L174.453,1.98438"/>
</g>

<g fill="none" stroke="#000000" stroke-opacity="1" stroke-width="1" stroke-linecap="square" stroke-linejoin="bevel" transform="matrix(1.99938,0,0,1.99938,672.713,139.956)"
font-family="sans" font-size="11" font-weight="100" font-style="normal" 
>
</g>

<g fill="none" stroke="#000000" stroke-opacity="1" stroke-width="1" stroke-linecap="square" stroke-linejoin="bevel" transform="matrix(1.99938,0,0,1.99938,672.713,139.956)"
font-family="Ubuntu" font-size="11" font-weight="400" font-style="normal" 
>
</g>

<g fill="none" stroke="#000000" stroke-opacity="1" stroke-width="1" stroke-linecap="square" stroke-linejoin="bevel" transform="matrix(1.99938,0,0,1.99938,0.00079975,274.914)"
font-family="Ubuntu" font-size="11" font-weight="400" font-style="normal" 
>
</g>

<g fill="none" stroke="#000000" stroke-opacity="1" stroke-width="1" stroke-linecap="square" stroke-linejoin="bevel" transform="matrix(1.99938,0,0,1.99938,0.00079975,274.914)"
font-family="Ubuntu" font-size="11" font-weight="400" font-style="normal" 
>
</g>

<g fill="none" stroke="#000000" stroke-opacity="1" stroke-width="1" stroke-linecap="square" stroke-linejoin="bevel" transform="matrix(1.99938,0,0,1.99938,0.00079975,274.914)"
font-family="Ubuntu" font-size="11" font-weight="400" font-style="normal" 
>
</g>

<g fill="none" stroke="#000000" stroke-opacity="1" stroke-width="1" stroke-linecap="square" stroke-linejoin="round" transform="matrix(1.99938,0,0,1.99938,0.00079975,274.914)"
font-family="Ubuntu" font-size="11" font-weight="400" font-style="normal" 
>
<path vector-effect="none" fill-rule="evenodd" d="M263.95,-39.529 C281.34,-41.86 302.42,-44.684 323.5,-47.509 "/>
</g>

<g fill="none" stroke="#000000" stroke-opacity="1" stroke-width="1" stroke-linecap="square" stroke-linejoin="bevel" transform="matrix(1.99938,0,0,1.99938,0.00079975,274.914)"
font-family="Ubuntu" font-size="11" font-weight="400" font-style="normal" 
>
</g>

<g fill="none" stroke="#000000" stroke-opacity="1" stroke-width="1" stroke-linecap="square" stroke-linejoin="bevel" transform="matrix(1.99938,0,0,1.99938,0.00079975,274.914)"
font-family="Ubuntu" font-size="11" font-weight="400" font-style="normal" 
>
</g>

<g fill="#000000" fill-opacity="1" stroke="#000000" stroke-opacity="1" stroke-width="1" stroke-linecap="square" stroke-linejoin="round" transform="matrix(1.99938,0,0,1.99938,0.00079975,274.914)"
font-family="Ubuntu" font-size="11" font-weight="400" font-style="normal" 
>
<path vector-effect="none" fill-rule="evenodd" d="M323.5,-47.509 L323.969,-44.0125 L333.49,-48.848 L323.031,-51.0055 L323.5,-47.509"/>
</g>

<g fill="none" stroke="#000000" stroke-opacity="1" stroke-width="1" stroke-linecap="square" stroke-linejoin="bevel" transform="matrix(1.99938,0,0,1.99938,0.00079975,274.914)"
font-family="Ubuntu" font-size="11" font-weight="400" font-style="normal" 
>
</g>

<g fill="none" stroke="#000000" stroke-opacity="1" stroke-width="1" stroke-linecap="square" stroke-linejoin="bevel" transform="matrix(1.99938,0,0,1.99938,0.00079975,274.914)"
font-family="Ubuntu" font-size="11" font-weight="400" font-style="normal" 
>
</g>

<g fill="none" stroke="#000000" stroke-opacity="1" stroke-width="1" stroke-linecap="square" stroke-linejoin="bevel" transform="matrix(1.99938,0,0,1.99938,0.00079975,274.914)"
font-family="Ubuntu" font-size="11" font-weight="400" font-style="normal" 
>
</g>

<g fill="none" stroke="#000000" stroke-opacity="1" stroke-width="1" stroke-linecap="square" stroke-linejoin="bevel" transform="matrix(1.99938,0,0,1.99938,0.00079975,274.914)"
font-family="Ubuntu" font-size="11" font-weight="400" font-style="normal" 
>
</g>

<g fill="none" stroke="#000000" stroke-opacity="1" stroke-width="1" stroke-linecap="square" stroke-linejoin="round" transform="matrix(1.99938,0,0,1.99938,0.00079975,274.914)"
font-family="Ubuntu" font-size="11" font-weight="400" font-style="normal" 
>
<path vector-effect="none" fill-rule="evenodd" d="M285.89,-79.531 C297.82,-77.933 310.57,-76.224 323.32,-74.515 "/>
</g>

<g fill="none" stroke="#000000" stroke-opacity="1" stroke-width="1" stroke-linecap="square" stroke-linejoin="bevel" transform="matrix(1.99938,0,0,1.99938,0.00079975,274.914)"
font-family="Ubuntu" font-size="11" font-weight="400" font-style="normal" 
>
</g>

<g fill="none" stroke="#000000" stroke-opacity="1" stroke-width="1" stroke-linecap="square" stroke-linejoin="bevel" transform="matrix(1.99938,0,0,1.99938,0.00079975,274.914)"
font-family="Ubuntu" font-size="11" font-weight="400" font-style="normal" 
>
</g>

<g fill="#000000" fill-opacity="1" stroke="#000000" stroke-opacity="1" stroke-width="1" stroke-linecap="square" stroke-linejoin="round" transform="matrix(1.99938,0,0,1.99938,0.00079975,274.914)"
font-family="Ubuntu" font-size="11" font-weight="400" font-style="normal" 
>
<path vector-effect="none" fill-rule="evenodd" d="M323.32,-74.515 L322.841,-70.9415 L333.53,-73.147 L323.799,-78.0885 L323.32,-74.515"/>
</g>

<g fill="none" stroke="#000000" stroke-opacity="1" stroke-width="1" stroke-linecap="square" stroke-linejoin="bevel" transform="matrix(1.99938,0,0,1.99938,0.00079975,274.914)"
font-family="Ubuntu" font-size="11" font-weight="400" font-style="normal" 
>
</g>

<g fill="none" stroke="#000000" stroke-opacity="1" stroke-width="1" stroke-linecap="square" stroke-linejoin="bevel" transform="matrix(1.99938,0,0,1.99938,0.00079975,274.914)"
font-family="Ubuntu" font-size="11" font-weight="400" font-style="normal" 
>
</g>

<g fill="none" stroke="#000000" stroke-opacity="1" stroke-width="1" stroke-linecap="square" stroke-linejoin="bevel" transform="matrix(1.99938,0,0,1.99938,0.00079975,274.914)"
font-family="Ubuntu" font-size="11" font-weight="400" font-style="normal" 
>
</g>

<g fill="none" stroke="#000000" stroke-opacity="1" stroke-width="1" stroke-linecap="square" stroke-linejoin="bevel" transform="matrix(1.99938,0,0,1.99938,0.00079975,274.914)"
font-family="Ubuntu" font-size="11" font-weight="400" font-style="normal" 
>
</g>

<g fill="none" stroke="#000000" stroke-opacity="1" stroke-width="1" stroke-linecap="square" stroke-linejoin="round" transform="matrix(1.99938,0,0,1.99938,0.00079975,274.914)"
font-family="Ubuntu" font-size="11" font-weight="400" font-style="normal" 
>
<path vector-effect="none" fill-rule="evenodd" d="M128.96,-50.638 C142.29,-48.221 156.4,-45.662 169.45,-43.294 "/>
</g>

<g fill="none" stroke="#000000" stroke-opacity="1" stroke-width="1" stroke-linecap="square" stroke-linejoin="bevel" transform="matrix(1.99938,0,0,1.99938,0.00079975,274.914)"
font-family="Ubuntu" font-size="11" font-weight="400" font-style="normal" 
>
</g>

<g fill="none" stroke="#000000" stroke-opacity="1" stroke-width="1" stroke-linecap="square" stroke-linejoin="bevel" transform="matrix(1.99938,0,0,1.99938,0.00079975,274.914)"
font-family="Ubuntu" font-size="11" font-weight="400" font-style="normal" 
>
</g>

<g fill="#000000" fill-opacity="1" stroke="#000000" stroke-opacity="1" stroke-width="1" stroke-linecap="square" stroke-linejoin="round" transform="matrix(1.99938,0,0,1.99938,0.00079975,274.914)"
font-family="Ubuntu" font-size="11" font-weight="400" font-style="normal" 
>
<path vector-effect="none" fill-rule="evenodd" d="M169.45,-43.294 L168.802,-39.7205 L179.66,-41.443 L170.098,-46.8675 L169.45,-43.294"/>
</g>

<g fill="none" stroke="#000000" stroke-opacity="1" stroke-width="1" stroke-linecap="square" stroke-linejoin="bevel" transform="matrix(1.99938,0,0,1.99938,0.00079975,274.914)"
font-family="Ubuntu" font-size="11" font-weight="400" font-style="normal" 
>
</g>

<g fill="none" stroke="#000000" stroke-opacity="1" stroke-width="1" stroke-linecap="square" stroke-linejoin="bevel" transform="matrix(1.99938,0,0,1.99938,0.00079975,274.914)"
font-family="Ubuntu" font-size="11" font-weight="400" font-style="normal" 
>
</g>

<g fill="none" stroke="#000000" stroke-opacity="1" stroke-width="1" stroke-linecap="square" stroke-linejoin="bevel" transform="matrix(1.99938,0,0,1.99938,0.00079975,274.914)"
font-family="Ubuntu" font-size="11" font-weight="400" font-style="normal" 
>
</g>

<g fill="none" stroke="#000000" stroke-opacity="1" stroke-width="1" stroke-linecap="square" stroke-linejoin="bevel" transform="matrix(1.99938,0,0,1.99938,0.00079975,274.914)"
font-family="Ubuntu" font-size="11" font-weight="400" font-style="normal" 
>
</g>

<g fill="none" stroke="#000000" stroke-opacity="1" stroke-width="1" stroke-linecap="square" stroke-linejoin="round" transform="matrix(1.99938,0,0,1.99938,0.00079975,274.914)"
font-family="Ubuntu" font-size="11" font-weight="400" font-style="normal" 
>
<path vector-effect="none" fill-rule="evenodd" d="M128.96,-71.362 C135.1,-72.474 141.4,-73.617 147.68,-74.757 "/>
</g>

<g fill="none" stroke="#000000" stroke-opacity="1" stroke-width="1" stroke-linecap="square" stroke-linejoin="bevel" transform="matrix(1.99938,0,0,1.99938,0.00079975,274.914)"
font-family="Ubuntu" font-size="11" font-weight="400" font-style="normal" 
>
</g>

<g fill="none" stroke="#000000" stroke-opacity="1" stroke-width="1" stroke-linecap="square" stroke-linejoin="bevel" transform="matrix(1.99938,0,0,1.99938,0.00079975,274.914)"
font-family="Ubuntu" font-size="11" font-weight="400" font-style="normal" 
>
</g>

<g fill="#000000" fill-opacity="1" stroke="#000000" stroke-opacity="1" stroke-width="1" stroke-linecap="square" stroke-linejoin="round" transform="matrix(1.99938,0,0,1.99938,0.00079975,274.914)"
font-family="Ubuntu" font-size="11" font-weight="400" font-style="normal" 
>
<path vector-effect="none" fill-rule="evenodd" d="M147.68,-74.757 L148.305,-71.313 L157.52,-76.542 L147.055,-78.201 L147.68,-74.757"/>
</g>

<g fill="none" stroke="#000000" stroke-opacity="1" stroke-width="1" stroke-linecap="square" stroke-linejoin="bevel" transform="matrix(1.99938,0,0,1.99938,0.00079975,274.914)"
font-family="Ubuntu" font-size="11" font-weight="400" font-style="normal" 
>
</g>

<g fill="none" stroke="#000000" stroke-opacity="1" stroke-width="1" stroke-linecap="square" stroke-linejoin="bevel" transform="matrix(1,0,0,1,0,0)"
font-family="Ubuntu" font-size="11" font-weight="400" font-style="normal" 
>
</g>
</g>
</svg>
